<svg width="99" height="63" viewBox="0 0 99 63" fill="none" xmlns="http://www.w3.org/2000/svg">
<path d="M52.058 62.0726L8.40466 31.4414C8.23809 31.3245 8.11114 31.1596 8.04076 30.9687L0.539825 10.6187V9.70078C0.539825 9.4039 0.669612 9.11855 0.918817 8.9572C1.38701 8.65406 2.09396 8.30791 2.75927 8.30791H5.99976C6.05885 8.30791 6.11738 8.30268 6.17554 8.29226L11.9134 7.26505C12.0443 7.24161 12.1693 7.19228 12.2809 7.11995L14.4895 5.689L18.3883 3.7187C18.431 3.69713 18.4752 3.67865 18.5205 3.6634L22.5739 2.29982L30.6923 0.175634C30.7749 0.154011 30.86 0.143066 30.9454 0.143066H34.9382H39.0602C39.1648 0.143066 39.2688 0.15949 39.3684 0.191739L41.9212 1.01872C42.0207 1.05096 42.1247 1.06739 42.2294 1.06739H45.0832H48.3991C48.5126 1.06739 48.6253 1.08671 48.7323 1.12453L52.058 2.29982L56.3379 3.68631L82.7215 16.4299C82.7805 16.4584 82.8422 16.481 82.9056 16.4975L87.4394 17.6724C87.5233 17.6942 87.6039 17.7267 87.6794 17.7692L98.5034 23.8673L96.4834 28.002L92.9047 45.9714C92.8375 46.3086 92.6019 46.5876 92.2807 46.7103L52.058 62.0726Z" fill="#7E3C24"/>
<g filter="url(#filter0_i_476_2475)">
<path d="M51.5879 62.0726L52.1212 43.0932L56.4883 39.8715L59.0657 37.8669L63.3613 34.3589L68.516 30.4928L74.6014 28.0587L79.5414 26.3404L83.6938 25.2299L85.5906 24.579H90.4784H93.9772L98.2683 24.0189L97.6065 25.8518L96.5882 27.4811L95.5699 32.5216L92.8205 46.5231L51.5879 62.0726Z" fill="#B77D33"/>
</g>
<g filter="url(#filter1_i_476_2475)">
<path d="M36.0857 7.30074H29.119L37.877 5.50928L61.7631 14.8647L69.9242 20.04H67.3365L38.8723 12.0779L36.0857 7.30074Z" fill="#925B1A"/>
</g>
<defs>
<filter id="filter0_i_476_2475" x="51.5879" y="24.0189" width="46.6805" height="40.0537" filterUnits="userSpaceOnUse" color-interpolation-filters="sRGB">
<feFlood flood-opacity="0" result="BackgroundImageFix"/>
<feBlend mode="normal" in="SourceGraphic" in2="BackgroundImageFix" result="shape"/>
<feColorMatrix in="SourceAlpha" type="matrix" values="0 0 0 0 0 0 0 0 0 0 0 0 0 0 0 0 0 0 127 0" result="hardAlpha"/>
<feOffset dy="2"/>
<feGaussianBlur stdDeviation="2"/>
<feComposite in2="hardAlpha" operator="arithmetic" k2="-1" k3="1"/>
<feColorMatrix type="matrix" values="0 0 0 0 0 0 0 0 0 0 0 0 0 0 0 0 0 0 0.25 0"/>
<feBlend mode="normal" in2="shape" result="effect1_innerShadow_476_2475"/>
</filter>
<filter id="filter1_i_476_2475" x="29.119" y="5.50928" width="40.8052" height="18.5306" filterUnits="userSpaceOnUse" color-interpolation-filters="sRGB">
<feFlood flood-opacity="0" result="BackgroundImageFix"/>
<feBlend mode="normal" in="SourceGraphic" in2="BackgroundImageFix" result="shape"/>
<feColorMatrix in="SourceAlpha" type="matrix" values="0 0 0 0 0 0 0 0 0 0 0 0 0 0 0 0 0 0 127 0" result="hardAlpha"/>
<feOffset dy="4"/>
<feGaussianBlur stdDeviation="2"/>
<feComposite in2="hardAlpha" operator="arithmetic" k2="-1" k3="1"/>
<feColorMatrix type="matrix" values="0 0 0 0 0 0 0 0 0 0 0 0 0 0 0 0 0 0 0.25 0"/>
<feBlend mode="normal" in2="shape" result="effect1_innerShadow_476_2475"/>
</filter>
</defs>
</svg>
