<svg width="191" height="242" viewBox="0 0 191 242" fill="none" xmlns="http://www.w3.org/2000/svg">
<path fill-rule="evenodd" clip-rule="evenodd" d="M100.458 0.352416L100.32 0.249481L100.152 0.287445L91.0659 2.33854L90.9627 2.36184L90.8869 2.43562L78.2438 14.7422L78.0876 14.8943L78.1425 15.1053L81.6117 28.4375L81.6133 28.4435L84.9213 40.3395H83.5036H83.3083L83.1964 40.4995L80.5207 44.3219L80.4339 44.4459L80.4575 44.5955L81.6042 51.8577L81.6042 51.8581L83.1286 61.5761V74.5432V74.6662L83.2015 74.7653L87.9066 81.1644V88.3909L80.2699 97.9368L61.6496 104.64H57.9588H57.905L57.8534 104.655L51.9913 106.371L51.9683 106.378L51.9463 106.388L35.1357 113.742L34.911 113.841V114.086V129.791L28.6228 150.751L28.6207 150.759L23.3674 169.671L23.3538 169.72V169.771V192.886V192.934L23.3661 192.981L28.6194 212.944L28.7417 212.912L33.1323 220.282L33.1754 220.354L33.2453 220.401L51.7551 232.847L51.8883 232.937L52.045 232.902L72.31 228.435L72.3519 228.425L72.3905 228.407L75.7414 226.811L75.9552 226.709V226.473V221.845V221.831H76.2462L77.447 225.734L77.462 225.782L77.4894 225.825L79.947 229.672L80.0533 229.838L80.2505 229.845L96.1717 230.379L96.1717 230.379H96.1842H103.069L111.185 239.444L111.297 239.569H111.464H113.922H114.297V239.194V237.955L123.81 228.02L123.89 227.936L123.909 227.821L125.393 218.81L128.738 213.281L134.238 214.687L134.267 214.694L134.296 214.697L141.989 215.418L142.007 215.42H142.024H149.184H149.233L149.281 215.407L151.491 214.812V216.802V222.512V222.887H151.866H153.359L167.773 223.638L168.168 223.658V223.263V220.032H169.446H169.499L169.551 220.017L179.317 217.162L179.459 217.121L179.535 216.994L184.343 208.88L184.363 208.845L184.376 208.806L188.283 196.936L188.294 196.903L188.298 196.869L190.552 180.191L190.555 180.166V180.141V157.303V157.289L190.554 157.275L188.301 126.624L188.291 126.5L188.21 126.405L173.785 109.81L173.733 109.75L173.661 109.716L153.6 100.352L153.852 99.219L153.953 98.7628H153.486H146.337H146.002L145.964 99.0956L145.872 99.9149L138.304 99.5439L134.636 90.154L134.456 89.6927L134.218 89.8726L130.738 86.0764L130.185 86.5832L133.617 90.3267L127.299 95.0998L127.291 95.1061L127.283 95.1129L122.673 99.0195L118.063 102.926L114.015 106.356H106.198L88.6566 88.3064V81.0414V80.9183L88.5837 80.8192L83.8786 74.4202V61.7238L86.4789 59.5824L87.9107 69.2467L87.9581 69.5668H88.2816H91.1485H91.5235V69.1918V61.9219H92.4936V69.1918V69.5668H92.8686H94.2137V73.0142V73.1945L94.3544 73.307L96.1471 74.7411L97.9783 89.1483L97.8087 89.41L97.9974 89.5324V91.8071V91.9465L98.0884 92.052L99.9504 94.212L99.9503 94.212L99.956 94.2183L102.712 97.2721L102.72 97.2816L102.73 97.2905L104.964 99.4505L105.008 99.4931L105.063 99.5194L108.192 101.009L108.372 101.095L108.544 100.993C109.22 100.592 110.666 99.7471 111.128 99.5163C111.31 99.4248 111.492 99.256 111.651 99.0857C111.817 98.9067 111.991 98.6904 112.156 98.4682C112.429 98.1013 112.692 97.7028 112.883 97.3959H114.399L116.63 98.2123L116.961 98.3335L117.102 98.0104L118.422 94.9954L119.439 93.6875L121.435 96.1832L121.764 96.5942L122.045 96.1492L126.593 88.9478L133.415 84.0211L133.57 83.9088V83.7171V76.0792L137.611 73.3241L137.739 73.2371L137.768 73.0855L138.915 67.1607L138.943 67.0183L138.867 66.8944L136.246 62.5884V51.606L138.352 52.8847L138.922 53.2305V52.5641V40.7145V40.3395H138.547H134.908V33.4285L141.734 21.0029L141.845 20.8023L141.717 20.6126L129.493 2.4946L129.381 2.32934H129.182H103.115L100.458 0.352416ZM98.7474 91.6678V89.3408L99.9982 87.4113L104.213 88.4901L106.365 95.0988V99.3085L105.441 98.8686L103.26 96.7601L100.518 93.7223L100.513 93.7159L98.7474 91.6678ZM108.334 100.246L106.782 99.5072H107.115V95.0393V94.9798L107.097 94.9232L105.058 88.663L111.839 89.9344L112.957 96.538L113.683 96.593L116.425 88.2956L116.466 88.173L116.422 88.0514L114.641 83.0814L116.328 79.0003L120.886 85.8971V90.4327L119.061 92.5613L119.243 92.7174L119.139 92.8518L117.801 94.572L117.772 94.6089L117.753 94.6519L116.557 97.3868L114.594 96.6687L114.532 96.6459H114.465H112.673H112.461L112.351 96.8279C112.17 97.1303 111.868 97.5999 111.555 98.0203C111.398 98.2307 111.243 98.4231 111.102 98.5745C110.953 98.7345 110.848 98.8177 110.792 98.8454C110.339 99.0718 109.054 99.8213 108.334 100.246ZM121.692 95.3036L119.764 92.8936L121.545 90.8155L121.636 90.7101V90.5714V85.8495L122.84 82.4825L125.034 83.329V86.3429V89.614H125.286L121.692 95.3036ZM125.998 88.486L125.784 88.8242V86.3429V83.0718V82.8145L125.544 82.7219L123.093 81.7761L124.159 78.797L127.609 81.255L128.754 83.2578L129.405 82.8857L128.22 80.8114L127.49 79.5348L127.432 79.4327L127.326 79.3822L124.276 77.9328L123.231 74.9183V74.9182H123.25V74.5432V68.451H127.081L127.52 75.0065L128.268 74.9564L127.806 68.0509L127.554 64.2853L129.396 63.0013L129.557 62.8893V62.6936V54.2297L133.276 49.8025L135.496 51.1506V62.6936V62.7988L135.551 62.8886L138.151 67.1605L137.061 72.7914L132.984 75.5712L132.82 75.6829V75.8811V83.5253L126.095 88.3822L126.037 88.4247L125.998 88.486ZM122.481 68.076V67.2369L118.472 63.5482V68.8168V69.1918V72.9608L118.582 73.1397L118.682 73.3027L118.609 73.4795L118.472 73.8118V74.1682H122.481V68.076ZM127.494 63.3928L127.495 63.4119L128.807 62.4979V54.0931V53.9565L128.895 53.8519L132.841 49.154L134.158 40.6855V33.3323V26.1259L126.148 19.4619L114.428 17.0951H102.99H87.0248L85.8054 20.8341L87.1006 25.7981L88.5976 28.1411L87.9656 28.5449L86.4367 26.152L86.4048 26.1021L86.3898 26.0447L85.052 20.917L85.0242 20.8106L85.0583 20.7061L86.3962 16.6039L86.4288 16.5037L86.5089 16.4352L90.8579 12.7149L93.1372 8.88786L85.6038 13.2837L85.2258 12.6359L94.0135 7.50818L102.311 2.6664L100.149 1.057L91.3343 3.04684L78.9232 15.1275L82.3368 28.2456L82.3375 28.2486L85.7761 40.6141L85.7861 40.6499L85.7888 40.687L87.1256 58.8298L88.6051 68.8168H90.7735V61.5469V61.1719H91.1485H92.8686H93.2436V61.5469V68.8168H94.5887H94.9637V69.1918V72.834L96.2416 73.8563L97.0864 69.1258L97.1416 68.8168H97.4555H114.465H117.722V62.6936V61.839L118.351 62.4176L122.907 66.6097L124.534 65.476L126.949 63.7766L127.494 63.3928ZM117.722 69.5668V71.7421L116.433 69.6482L116.481 69.5668H117.722ZM99.4447 69.5668L99.5626 69.8496L100.204 71.3881L101.101 74.7972L98.8962 76.0435L98.7058 76.1512V76.37V80.9974V81.1201L98.7783 81.2191L101.082 84.3614L99.5155 86.7772L98.6104 88.1733L96.8791 74.5527L97.7695 69.5668H99.4447ZM100.635 70.0804L100.916 71.1473L102.271 74.401H112.792L115.313 70.0804H100.635ZM118.097 74.9182H118.015L116.674 78.1633L121.16 84.9522L122.264 81.8679L123.576 78.202L122.502 75.1042L122.481 75.0446V74.9814V74.9182H118.097ZM117.722 73.663V73.1731L116.094 70.5287L113.659 75.1561L113.553 75.3564H113.327H110.503L108.806 79.5569L114.055 82.536L115.904 78.0608L117.722 73.663ZM127.031 67.701H123.25V67.2967L124.965 66.09L126.836 64.7859L127.031 67.701ZM153.018 99.5128L152.853 100.257L146.622 99.9517L146.672 99.5128H153.018ZM152.689 101L146.538 100.698L145.28 111.809L145.279 111.815L143.428 126.166H147.108L152.689 101ZM144.535 111.722L145.787 100.662L138.279 100.294L133.126 111.631L133.109 111.667L133.086 111.699L123.319 124.921L122.954 125.416L122.681 124.864L119.333 118.078L111.309 128.323L116.106 135.611L116.163 135.696L116.168 135.798L118.68 186.433L118.704 186.903L118.24 186.821L95.456 182.764L95.0996 182.701L95.1267 182.51L83.385 178.056L65.5904 187.216L64.0724 190.52L73.842 198.211L82.2573 196.872L74.4969 191.634L74.9165 191.012L83.3697 196.718H90.1584L86.8558 193.85L87.3476 193.284L91.3022 196.718H95.3711L92.1591 192.956L92.7296 192.469L96.4695 196.85L100.145 201.156L104.434 202.725L104.465 202.736L104.493 202.753L106.942 204.17L100.373 195.503L100.971 195.05L108.569 205.076L113.101 205.652L108.064 198.812L108.668 198.367L114.192 205.869L118.433 209.113H121.275L115.497 201.705L116.089 201.244L122.288 209.193L127.52 211.89L122.473 203.81L123.109 203.413L128.799 212.522L133.54 213.734L129.094 206.328L129.737 205.942L134.555 213.968L141.302 214.6L136.578 207.085L137.213 206.686L142.232 214.67H148.497L143.632 207.088L144.263 206.683L149.351 214.611L151.491 214.036V211.844V211.438V211.41L146.513 203.273L147.153 202.881L151.491 209.973V206.135V205.737V199.439L147.684 192.901L147.633 192.814V192.712V187.301H119.226V186.551H142.658V178.551V178.46L142.7 178.379L146.513 170.992L146.552 170.916L146.621 170.864L152.34 166.575L152.341 166.575L163.54 158.235L163.64 158.16H163.764H167.1H167.475V158.535V161.633V166.875V166.998L167.403 167.097L164.427 171.155L165.791 172.86L171.729 170.55V166.875H172.479V170.259L178.163 168.049V164.254H178.913V168.305V168.562L178.674 168.655L172.24 171.157L166.442 173.411L171.947 177.459V175.692H172.697V177.881L174.327 178.145L178.241 173.08L178.835 173.538L174.983 178.523L178.538 182.183L182.32 178.29L182.858 178.813L179.061 182.721L182.624 186.389L184.503 184.927L184.963 185.519L182.819 187.187L182.554 187.393L182.32 187.153L178.269 182.983L174.304 178.902L172.262 178.57L165.8 177.522L162.311 181.011H165.639H165.957L166.009 181.324L167.077 187.735L167.083 187.766V187.797V193.567V193.967L166.684 193.941L153.345 193.087L153.393 192.338L166.333 193.167V188.14L151.832 186.825L151.9 186.078L166.258 187.38L165.321 181.761H148.383V192.611L152.082 198.962H166.708H167.033L167.079 199.284L168.164 206.832L168.226 207.261H167.793H165.013V212.849V216.802V217.177H164.638H152.241V222.137H153.369H153.378L153.388 222.138L167.418 222.868V219.657V219.282H167.793H169.392L178.965 216.484L183.677 208.533L187.56 196.735L189.805 180.116V157.317L187.562 126.803L173.272 110.362L153.434 101.102L147.877 126.166H151.564L154.329 119.253L155.025 119.531L152.183 126.638L150.048 141.817V154.301V157.694L154.315 141.694L154.322 141.669L154.332 141.644L161.719 124.249L162.409 124.543L155.033 141.913L150.048 160.605V166.023L153.162 163.492L155.745 155.394L157.171 149.095L157.178 149.061L157.192 149.029L161.72 138.544L162.419 138.815L153.843 163.827L153.84 163.835L153.805 163.936L153.722 164.004L149.909 167.102L149.9 167.109L149.891 167.116L146.555 169.499L146.457 169.568H146.337H143.716H139.069H135.927L134.797 184.948L134.048 184.92V169.193V169.174L134.05 169.155L136.909 141.756L136.909 141.752L138.339 126.506L138.37 126.166H138.712H142.671L144.535 111.722ZM83.6988 41.0895H85.0664L86.3644 58.7051L83.7723 60.8398L82.3451 51.7415L82.345 51.7411L81.2219 44.628L83.6988 41.0895ZM94.4752 8.10716L103.092 3.07934H128.982L140.967 20.8424L134.908 31.8708V25.9501V25.9137L134.901 25.8781L133.563 19.0411L133.549 18.9694L133.51 18.9082L129.496 12.7549L129.429 12.6526L129.315 12.6092L123.008 10.2163L122.944 10.1919H122.875H114.465H114.395L114.329 10.2177L108.216 12.6106L108.174 12.627L108.138 12.6528L102.872 16.3451H87.7679L91.3363 13.2926L98.4714 10.9291L111 8.20707H122.875V7.45707H110.96H110.92L110.88 7.46562L98.2928 10.2004L98.2733 10.2046L98.2545 10.2109L91.9854 12.2876L94.4752 8.10716ZM114.465 16.3451H104.178L108.531 13.2926L114.536 10.9419H122.806L128.935 13.2671L132.841 19.2568L133.963 24.9877L126.555 18.8248L126.482 18.7643L126.389 18.7455L114.54 16.3526L114.503 16.3451H114.465ZM133.605 49.1247L134.854 41.0895H138.172V51.8977L136.066 50.619L133.605 49.1247ZM29.3089 212.398L29.2592 212.428L24.1038 192.837V169.822L29.3412 150.967L29.3423 150.963L35.6452 129.954L35.661 129.901V129.846V114.331L52.225 107.085L58.0125 105.39H61.7151H61.7805L61.8421 105.368L80.3492 98.7054L83.0101 102.643L85.9152 106.941L89.8945 112.829L94.2807 119.32L98.6668 125.81L99.0739 126.412L99.3287 125.731L101.222 120.674L107.221 128.311L101.831 135.594L101.775 135.67L101.762 135.764L95.2347 181.748L83.4949 177.295L83.3387 177.236L83.1903 177.313L65.132 186.609L65.0169 186.668L64.9629 186.786L63.2958 190.414H58.0375H57.8966L57.7906 190.507L53.4886 194.271L49.3591 191.362L50.7889 188.387L50.1129 188.062L48.7374 190.924L44.6716 188.06L45.3682 184.776L44.6345 184.621L43.8866 188.147L43.8352 188.389L44.0374 188.531L48.6676 191.793L52.9078 194.779L50.1191 197.219L45.9456 196.195L45.3284 196.043L45.4942 196.657L46.5627 200.611L46.6376 200.888H46.9247H50.4509H50.8572L50.8247 200.483L50.6081 197.788L53.4996 195.258L55.104 196.827L55.6284 196.291L54.0657 194.763L58.1784 191.164H61.6706V191.271H63.4871H63.7275L63.7503 191.221L73.4768 198.878V203.611V203.625L73.4779 203.639L74.3317 215.059V221.161L64.3745 218.777L45.4198 210.016L45.1052 210.697L64.0936 219.473L64.1274 219.489L64.1636 219.497L75.2052 222.141V226.236L72.1067 227.711L52.0403 232.135L33.7336 219.826L29.3089 212.398ZM147.633 186.551H143.408V178.642L147.14 171.413L152.789 167.176L152.79 167.175L163.888 158.91H166.725V161.473L154.688 173.039L154.649 173.076L154.623 173.122L150.095 180.985L150.081 181.011H148.008H147.633V181.386V186.551ZM161.458 181.011H157.199L163.968 171.781L165.295 173.441V176.966L161.354 180.907L161.458 181.011ZM83.3598 101.821L80.9618 98.2725L88.3369 89.0536L105.605 106.822L104.756 109.091L100.753 119.786L98.8811 124.787L95.0081 119.056L99.331 106.857L98.624 106.606L94.4861 118.284L90.6459 112.602L95.8482 103.397L95.1953 103.028L90.1768 111.908L86.6944 106.755L92.2037 100.147L91.6276 99.6664L86.2573 106.108L83.7938 102.463L89.7931 95.6468L89.2302 95.1513L83.3598 101.821ZM105.633 108.887L106.299 107.106H113.92L115.165 109.631L105.633 108.887ZM105.359 109.618L115.551 110.413L118.965 117.331L110.665 127.929H107.874L101.529 119.851L105.359 109.618ZM107.881 128.679H110.645L115.424 135.938L117.908 186L95.9439 182.089L102.491 135.963L107.881 128.679ZM134.118 90.8882L137.636 99.8955L132.459 111.285L123.082 123.98L119.742 117.211L116.129 109.89L114.619 106.828L118.215 103.781L124.651 114.282L125.291 113.89L118.794 103.29L122.832 99.8676L129.013 109.426L129.643 109.019L123.409 99.3786L127.42 95.9799L131.555 103.395L132.21 103.029L128.012 95.5014L134.118 90.8882ZM164.263 216.427H152.241V214.323V212.25L164.263 213.195V216.427ZM164.263 212.443L152.241 211.497V211.305V206.532L164.263 207.239V212.443ZM164.649 206.511L152.241 205.781V199.712H166.383L167.36 206.511H164.649ZM120.991 217.823L127.845 212.901L121.952 209.863H118.529L115.107 216.185L114.447 215.828L117.823 209.592L114.047 206.703L107.95 218.318L107.286 217.969L113.339 206.438L108.568 205.832L100.251 220.572L99.5975 220.203L107.857 205.567L104.448 203.593L97.0467 216.984L96.3903 216.621L103.765 203.279L100.098 201.937L95.8504 209.669L95.193 209.308L99.4707 201.521L96.0113 197.468H91.6102L92.6403 203.225L93.7493 209.422L94.6145 214.257L95.8909 221.39L95.9698 221.831H95.5217H77.0309L78.1488 225.464L80.4728 229.102L96.0215 229.624L100.392 224.732L100.469 224.646L100.581 224.618L114.643 221.103L120.991 217.823ZM91.8245 202.924L90.8483 197.468H83.2846L74.2268 198.909V203.23L91.8245 202.924ZM75.0537 214.657L74.2554 203.979L91.9583 203.671L92.9321 209.113H77.8054V209.863H93.0663L93.8002 213.964L75.0537 214.657ZM75.0817 215.406L93.9336 214.71L95.0737 221.081H76.5232H75.0817V215.406ZM103.237 229.629H97.0223L100.875 225.318L114.868 221.82L114.91 221.809L114.949 221.789L121.36 218.477L121.384 218.464L121.407 218.448L127.292 214.221L124.714 218.484L124.676 218.546L124.665 218.617L123.188 227.585L113.651 237.545L113.547 237.654V237.805V238.819H111.632L103.516 229.754L103.404 229.629H103.237ZM46.384 197.075L49.4299 197.822L47.13 199.835L46.384 197.075ZM50.0446 200.138H47.9228L49.9052 198.403L50.0446 200.138ZM139.412 219.287L138.959 219.215L138.978 219.673L139.603 234.438H138.314L137.27 219.631L137.245 219.282H136.895H135.079H134.69L134.704 219.671L135.439 239.99L0.976196 240.528L0.979196 241.278L135.83 240.739L143.949 240.706L161.26 240.637L161.257 239.887L144.323 239.955V220.387V220.067L144.007 220.017L139.412 219.287ZM143.573 239.958L136.19 239.987L135.468 220.032H136.546L137.59 234.839L137.615 235.188H137.964H139.994H140.385L140.369 234.797L139.747 220.1L143.573 220.708V239.958ZM130.752 236.498L129.79 221.432L129.041 221.48L130.003 236.546L130.752 236.498ZM150.948 235.24V224.982H150.198V235.24H150.948ZM156.184 226.371V235.026H155.434V226.371H156.184ZM160.778 234.492V226.585H160.028V234.492H160.778ZM165.693 227.207L166.334 239.923L165.585 239.961L164.944 227.245L165.693 227.207ZM43.1909 215.803L63.2964 225.058L63.61 224.377L43.5045 215.122L43.1909 215.803ZM55.4854 227.455L44.7944 222.828L45.0924 222.139L55.7833 226.767L55.4854 227.455ZM73.3014 214.627L55.43 208.882L55.2005 209.596L73.0719 215.341L73.3014 214.627ZM62.2898 205.85L71.8639 208.882L71.6374 209.597L62.0633 206.565L62.2898 205.85ZM72.3005 203.606L67.354 202.648L67.2115 203.384L72.158 204.342L72.3005 203.606ZM61.8183 201.1L59.2652 199.505L59.6627 198.869L62.2158 200.464L61.8183 201.1ZM53.8555 202.386L57.8446 204.62L58.2111 203.966L54.222 201.732L53.8555 202.386ZM51.7916 207.338L47.4834 205.104L47.8287 204.439L52.1369 206.673L51.7916 207.338ZM38.1847 147.005L43.0763 137.834L43.738 138.187L38.8905 147.275V163.079H38.1405V147.182V147.088L38.1847 147.005ZM32.026 174.697V191.817H32.776V174.697H32.026ZM37.5732 209.726L32.6816 200.554L33.3434 200.201L38.235 209.373L37.5732 209.726ZM49.1604 115.897L44.8803 131.183L45.6025 131.385L49.8826 116.099L49.1604 115.897ZM56.5235 132.951L64.4722 117.053L65.1431 117.389L57.1943 133.286L56.5235 132.951ZM54.05 148.922L49.1584 167.877L49.8846 168.065L54.7762 149.11L54.05 148.922ZM59.5905 162.282L64.4821 153.722L65.1332 154.094L60.3412 162.48L65.1431 172.083L65.2328 172.263L65.1332 172.437L60.2416 180.997L59.5905 180.625L64.3825 172.239L59.5806 162.636L59.4909 162.456L59.5905 162.282ZM40.6801 173.722L49.8518 184.117L50.4142 183.62L41.2425 173.226L40.6801 173.722ZM62.0483 143.307L74.8887 123.741L75.5157 124.153L62.6754 143.719L62.0483 143.307ZM89.578 130.446L74.2918 150.624L74.8896 151.077L90.1758 130.899L89.578 130.446ZM75.4387 169.659V158.799H76.1887V169.805V169.952L76.0892 170.06L68.7519 178.008L68.2008 177.5L75.4387 169.659ZM94.4103 140.345L88.9073 158.077L89.6236 158.299L95.1266 140.567L94.4103 140.345ZM131.088 158.877L126.808 138.699L127.542 138.544L131.822 158.721L131.088 158.877ZM166.725 162.513L155.246 173.542L151.069 180.797H156.426L163.652 170.943L166.725 166.753V162.513ZM166.045 174.05V176.802L170.847 177.581L166.045 174.05ZM173.173 163.178L171.267 157.697L170.559 157.944L172.465 163.424L173.173 163.178ZM176.505 155.066L178.412 160.07L177.711 160.337L175.805 155.333L176.505 155.066ZM183.162 158.129L181.494 154.793L180.824 155.129L182.492 158.465L183.162 158.129ZM136.16 156.162L134.839 168.818H135.23L136.16 156.162ZM135.982 168.818H138.721L139.202 162.315L139.708 155.464L140.691 142.166H137.94L135.982 168.818ZM137.995 141.416H141.095H144.907H149.347L151.386 126.916H147.409H143.001H139.06L137.995 141.416ZM149.298 142.166H145.266L144.686 155.508L144.388 162.359L144.108 168.818H146.217L149.298 166.618V160.556V154.301V142.166ZM143.357 168.818L143.622 162.718H139.924L139.473 168.818H143.357ZM139.98 161.968H143.655L143.92 155.867H140.43L139.98 161.968ZM140.486 155.117H143.953L144.516 142.166H141.443L140.486 155.117ZM135.175 169.568H134.798V174.698L135.175 169.568ZM157.626 150.481L158.565 147.741L157.895 149.294L157.626 150.481ZM162.425 151.184L164.33 144.757L163.611 144.544L161.704 150.977L161.704 150.977L161.701 150.99L159.794 158.377L159.519 159.446L160.388 158.766L164.201 155.788L164.251 155.749L164.285 155.696L167.144 151.288L166.515 150.88L163.69 155.235L160.796 157.496L162.425 151.184ZM186.267 155.135V152.514H185.517V155.135H186.267ZM92.0312 40.0903H100.408L104.337 44.322H99.1479H99.0928L99.0401 44.3378L91.9234 46.4728L92.1389 47.1912L96.6379 45.8415V45.9947L95.9534 46.1468L95.4668 46.2549L95.7055 46.6925L96.674 48.4679L96.8519 48.794L97.1797 48.6192L98.3902 47.9736L98.5887 47.8677V47.6427V46.8357V46.0287V45.5612L98.1324 45.6626L97.3879 45.8281V45.7645H96.8945L99.2029 45.072H104.822V62.8446V63.2196H105.197H113.381V62.4696H105.572V44.697V44.5497L105.472 44.4418L100.846 39.4601L100.735 39.3403H100.571H92.0312V40.0903ZM96.6026 46.7709L96.6379 46.763V46.8355L96.6026 46.7709ZM97.8387 47.4177L97.3879 47.6582V46.5964L97.8387 46.4962V46.8357V47.4177ZM95.2337 51.4771H98.792V50.7271H95.2337V51.4771ZM115.972 44.2011H116.049H119.519H122.989V44.9511H119.519H116.125L114.24 45.7537L113.946 45.0637L115.902 44.231L115.972 44.2011ZM117.743 45.7344H117.093L117.419 46.2973L118.307 47.8306L118.415 48.0177H118.631H119.519H119.756L119.858 47.8033L120.584 46.2699L120.838 45.7344H120.245H117.743ZM118.847 47.2677L118.394 46.4844H119.653L119.282 47.2677H118.847ZM115.564 38.2292H115.067L115.204 38.7072L115.527 39.837L115.604 40.109H115.887H123.473H124.245L123.768 39.5023L122.88 38.3725L122.768 38.2292H122.586H115.564ZM116.17 39.359L116.062 38.9792H122.403L122.702 39.359H116.17ZM101.636 75.3564L99.4558 76.5888V80.8747L101.839 84.1266L101.992 84.3353L101.852 84.5523L100.429 86.7473L104.587 87.8116L112.234 89.2454L112.491 89.2936L112.535 89.5514L113.445 94.9241L115.672 88.1828L113.934 83.3292L108.151 80.047L107.865 79.8849L107.988 79.5804L109.694 75.3564H101.636ZM132.694 71.1043V67.1151H133.444V71.1043H132.694Z" fill="white"/>
</svg>
