<svg width="22" height="46" viewBox="0 0 22 46" fill="none" xmlns="http://www.w3.org/2000/svg">
<path d="M20.7287 22.784C20.7287 34.9988 16.379 44.9008 11.0135 44.9008C5.6479 44.9008 1.29825 34.9988 1.29825 22.784C1.29825 10.5692 5.6479 0.667099 11.0135 0.667099C16.379 0.667099 20.7287 10.5692 20.7287 22.784Z" fill="#9F3A01"/>
<g filter="url(#filter0_i_11_55)">
<path d="M4.64092 13.1133L8.24985 7.53594L5.30047 13.4328C4.49955 15.0342 4.74182 16.9602 5.91435 18.3133C7.52952 20.1772 7.31048 23.0016 5.42725 24.5942L4.99932 24.956C4.84898 25.1203 4.68497 25.2758 4.50741 25.4211L2.7225 26.8815L4.99932 24.956C6.58033 23.2289 6.64922 20.5403 5.05541 18.7291C3.67554 17.1611 3.50621 14.8669 4.64092 13.1133Z" fill="#9F3A01"/>
</g>
<g filter="url(#filter1_i_11_55)">
<path d="M8.6917 14.6461L12.3006 9.06866L9.35125 14.9656C8.55033 16.5669 8.7926 18.493 9.96513 19.8461C11.5803 21.71 11.3613 24.5343 9.47803 26.1269L9.0501 26.4888C8.89976 26.653 8.73575 26.8086 8.5582 26.9538L6.77328 28.4142L9.0501 26.4888C10.6311 24.7616 10.7 22.073 9.10619 20.2618C7.72632 18.6938 7.55699 16.3997 8.6917 14.6461Z" fill="#9F3A01"/>
</g>
<g filter="url(#filter2_i_11_55)">
<path d="M13.2899 16.2883L16.8988 10.7109L13.9494 16.6078C13.1485 18.2091 13.3908 20.1352 14.5633 21.4883C16.1785 23.3522 15.9594 26.1765 14.0762 27.7691L13.6483 28.131C13.4979 28.2952 13.3339 28.4508 13.1564 28.596L11.3715 30.0564L13.6483 28.131C15.2293 26.4038 15.2982 23.7152 13.7044 21.9041C12.3245 20.336 12.1552 18.0419 13.2899 16.2883Z" fill="#9F3A01"/>
</g>
<g filter="url(#filter3_i_11_55)">
<path d="M5.64236 28.6634L7.88315 23.7938L6.04249 28.9687C5.56602 30.3083 5.72276 31.7916 6.46866 33.002C7.53024 34.7246 7.36765 36.9338 6.06532 38.4825L5.83417 38.7574C5.72706 38.914 5.61008 39.0657 5.48331 39.2116L4.52686 40.3119L5.83417 38.7574C6.93161 37.1523 6.99292 35.028 5.94249 33.3496C5.05905 31.9379 4.94622 30.1762 5.64236 28.6634Z" fill="#9F3A01"/>
</g>
<g filter="url(#filter4_i_11_55)">
<path d="M10.9522 29.5939L13.193 24.7244L11.3523 29.8993C10.8758 31.2388 11.0326 32.7222 11.7785 33.9326C12.8401 35.6552 12.6775 37.8644 11.3751 39.4131L11.144 39.6879C11.0369 39.8446 10.9199 39.9963 10.7931 40.1421L9.83667 41.2425L11.144 39.6879C12.2414 38.0829 12.3027 35.9586 11.2523 34.2801C10.3689 32.8685 10.256 31.1068 10.9522 29.5939Z" fill="#9F3A01"/>
</g>
<path d="M3.19239 10.3475H2.89152L2.67662 11.3705L2.41014 11.8719L2.41014 12.1707L2.41013 12.3568L2.53047 12.7143L2.89152 13.4765L3.19239 14.1385L3.77407 14.7001L4.35575 15.021L5.32015 15.2015H6.38161H7.44469L8.20689 15.021L9.02927 14.7001L9.48259 13.8835L9.7092 13.1556C9.78076 12.9293 9.8881 12.7143 9.97159 12.5539C10.0353 12.4314 10.1859 12.0524 10.2528 11.8719L10.5537 11.5109L10.9147 11.3705H11.1554L11.5967 11.5109V11.6312L11.717 11.8719L11.8374 12.5539L12.1583 13.1556L12.4391 13.617L12.7601 14.1385L13.0609 14.4995L13.5423 14.7001H14.1842H15.5682H16.4307C16.5109 14.7001 16.9321 14.5664 17.1327 14.4995L18.0153 14.2588L18.3563 13.9379L18.6371 13.617L18.9379 13.1556L19.1385 12.3533V11.8719L19.3792 11.3705L19.1385 10.8116L18.9379 9.70564L18.6371 9.82599V9.98645L18.0153 9.82599L17.1327 9.70564L16.1499 9.5853H15.0467L13.9234 9.70564L13.3217 9.82599L12.6197 10.0867L12.1583 10.5681H11.8374L11.1554 10.6885H10.4534H9.972L9.77142 10.5681L9.47055 10.3475L8.80863 9.98645L8.20689 9.82599H7.44469H6.4819H5.77987H5.0979L4.35575 9.98645L3.77407 10.0867L3.19239 10.3475Z" fill="#F2F1F1" fill-opacity="0.25" stroke="black" stroke-width="0.2"/>
<path d="M17.6673 8.21773L18.1704 8.97296L18.5793 9.78705L18.8395 9.6616L18.5793 8.97296V8.0099V7.88952L18.4138 7.55847L18.2784 6.49007L17.6673 5.03043L16.9241 4.06736L16.4426 3.34507L16.2319 2.95382L15.7504 2.35191L15.3892 1.79514L14.9378 1.32866L14.1101 0.89227L13.448 0.606359L12.0486 0.440834H10.935L9.33997 0.606359L8.28662 0.711692L7.09784 1.05779L5.77364 1.97571L5.21687 2.80334L4.5999 4.29308L4.35915 5.25614L4.07754 6.4834L3.74823 7.88952L2.88977 10.2034L3.74823 9.49964L4.35915 7.88952L4.93482 6.4834L5.21687 5.62612L6.08483 5.00033L6.79574 4.91004L7.42302 4.69937L8.85007 4.51933L10.2039 4.59404L11.2285 4.51933L11.8379 4.59404H12.4549L13.448 4.69937L14.8023 4.59404L15.7504 4.06736L16.3523 4.91004L17.4056 6.82112L17.5561 7.39294L17.6673 8.21773Z" fill="#7E510D" stroke="black" stroke-width="0.2"/>
<path d="M4.34753 33.7052L9.75079 41.3153L9.49771 42.4541L9.24463 43.4664L9.75079 45.1115L6.29203 42.4541L2.75299 38.2793L0.723511 33.7052L1.48351 29.2939L2.75299 29.9363L4.34753 33.7052Z" fill="#D5BDA0" stroke="black" stroke-width="0.2"/>
<path d="M17.4018 34.7015L12.3238 41.7792L12.9987 42.2432L13.7579 42.8759V44.2679L18.9964 39.2757L21.0258 34.7015L20.4223 30.2641L19.4312 30.9326L17.4018 34.7015Z" fill="#D5BDA0" stroke="black" stroke-width="0.2"/>
<defs>
<filter id="filter0_i_11_55" x="2.7225" y="7.53594" width="5.52734" height="23.3455" filterUnits="userSpaceOnUse" color-interpolation-filters="sRGB">
<feFlood flood-opacity="0" result="BackgroundImageFix"/>
<feBlend mode="normal" in="SourceGraphic" in2="BackgroundImageFix" result="shape"/>
<feColorMatrix in="SourceAlpha" type="matrix" values="0 0 0 0 0 0 0 0 0 0 0 0 0 0 0 0 0 0 127 0" result="hardAlpha"/>
<feOffset dy="4"/>
<feGaussianBlur stdDeviation="2"/>
<feComposite in2="hardAlpha" operator="arithmetic" k2="-1" k3="1"/>
<feColorMatrix type="matrix" values="0 0 0 0 0 0 0 0 0 0 0 0 0 0 0 0 0 0 0.25 0"/>
<feBlend mode="normal" in2="shape" result="effect1_innerShadow_11_55"/>
</filter>
<filter id="filter1_i_11_55" x="6.77328" y="9.06866" width="5.52734" height="23.3455" filterUnits="userSpaceOnUse" color-interpolation-filters="sRGB">
<feFlood flood-opacity="0" result="BackgroundImageFix"/>
<feBlend mode="normal" in="SourceGraphic" in2="BackgroundImageFix" result="shape"/>
<feColorMatrix in="SourceAlpha" type="matrix" values="0 0 0 0 0 0 0 0 0 0 0 0 0 0 0 0 0 0 127 0" result="hardAlpha"/>
<feOffset dy="4"/>
<feGaussianBlur stdDeviation="2"/>
<feComposite in2="hardAlpha" operator="arithmetic" k2="-1" k3="1"/>
<feColorMatrix type="matrix" values="0 0 0 0 0 0 0 0 0 0 0 0 0 0 0 0 0 0 0.25 0"/>
<feBlend mode="normal" in2="shape" result="effect1_innerShadow_11_55"/>
</filter>
<filter id="filter2_i_11_55" x="11.3715" y="10.7109" width="5.52734" height="23.3455" filterUnits="userSpaceOnUse" color-interpolation-filters="sRGB">
<feFlood flood-opacity="0" result="BackgroundImageFix"/>
<feBlend mode="normal" in="SourceGraphic" in2="BackgroundImageFix" result="shape"/>
<feColorMatrix in="SourceAlpha" type="matrix" values="0 0 0 0 0 0 0 0 0 0 0 0 0 0 0 0 0 0 127 0" result="hardAlpha"/>
<feOffset dy="4"/>
<feGaussianBlur stdDeviation="2"/>
<feComposite in2="hardAlpha" operator="arithmetic" k2="-1" k3="1"/>
<feColorMatrix type="matrix" values="0 0 0 0 0 0 0 0 0 0 0 0 0 0 0 0 0 0 0.25 0"/>
<feBlend mode="normal" in2="shape" result="effect1_innerShadow_11_55"/>
</filter>
<filter id="filter3_i_11_55" x="4.52686" y="23.7938" width="3.35629" height="20.5182" filterUnits="userSpaceOnUse" color-interpolation-filters="sRGB">
<feFlood flood-opacity="0" result="BackgroundImageFix"/>
<feBlend mode="normal" in="SourceGraphic" in2="BackgroundImageFix" result="shape"/>
<feColorMatrix in="SourceAlpha" type="matrix" values="0 0 0 0 0 0 0 0 0 0 0 0 0 0 0 0 0 0 127 0" result="hardAlpha"/>
<feOffset dy="4"/>
<feGaussianBlur stdDeviation="2"/>
<feComposite in2="hardAlpha" operator="arithmetic" k2="-1" k3="1"/>
<feColorMatrix type="matrix" values="0 0 0 0 0 0 0 0 0 0 0 0 0 0 0 0 0 0 0.25 0"/>
<feBlend mode="normal" in2="shape" result="effect1_innerShadow_11_55"/>
</filter>
<filter id="filter4_i_11_55" x="9.83667" y="24.7244" width="3.35629" height="20.5182" filterUnits="userSpaceOnUse" color-interpolation-filters="sRGB">
<feFlood flood-opacity="0" result="BackgroundImageFix"/>
<feBlend mode="normal" in="SourceGraphic" in2="BackgroundImageFix" result="shape"/>
<feColorMatrix in="SourceAlpha" type="matrix" values="0 0 0 0 0 0 0 0 0 0 0 0 0 0 0 0 0 0 127 0" result="hardAlpha"/>
<feOffset dy="4"/>
<feGaussianBlur stdDeviation="2"/>
<feComposite in2="hardAlpha" operator="arithmetic" k2="-1" k3="1"/>
<feColorMatrix type="matrix" values="0 0 0 0 0 0 0 0 0 0 0 0 0 0 0 0 0 0 0.25 0"/>
<feBlend mode="normal" in2="shape" result="effect1_innerShadow_11_55"/>
</filter>
</defs>
</svg>
