<svg width="37" height="543" viewBox="0 0 37 543" fill="none" xmlns="http://www.w3.org/2000/svg">
<path d="M14.4306 271.295L13.5688 272.727L13.1512 272.495L14.013 271.063L14.4306 271.295Z" fill="#67572F" stroke="#919191" stroke-width="0.1"/>
<path fill-rule="evenodd" clip-rule="evenodd" d="M13.2897 272.222C10.5848 270.837 7.50825 272.128 5.85175 274.881C4.18466 277.651 5.92958 278.621 8.6096 280.111C8.64752 280.132 8.68563 280.153 8.72392 280.175C8.76217 280.196 8.80026 280.217 8.83821 280.238C11.5227 281.732 13.4485 282.804 15.1156 280.034C16.7429 277.33 16.2431 274.091 13.7566 272.49C13.6973 272.555 13.6523 272.631 13.6242 272.714L13.6234 272.716C13.4919 272.596 13.3333 272.507 13.1597 272.456L13.1499 272.453L13.152 272.45C13.208 272.38 13.2544 272.303 13.2897 272.222Z" fill="#EA4040"/>
<path d="M12.8487 445.938L11.9869 447.37L11.5693 447.137L12.431 445.705L12.8487 445.938Z" fill="#67572F" stroke="#919191" stroke-width="0.1"/>
<path fill-rule="evenodd" clip-rule="evenodd" d="M11.7077 446.864C9.0028 445.479 5.92628 446.771 4.26978 449.523C2.60269 452.293 4.34761 453.263 7.02763 454.754C7.06555 454.775 7.10366 454.796 7.14195 454.817C7.1802 454.838 7.21829 454.86 7.25624 454.881C9.94072 456.375 11.8665 457.446 13.5337 454.676C15.1609 451.972 14.6611 448.733 12.1746 447.133C12.1154 447.198 12.0703 447.274 12.0423 447.356L12.0414 447.359C11.9099 447.238 11.7513 447.149 11.5777 447.098L11.5679 447.095L11.5701 447.093C11.626 447.023 11.6725 446.945 11.7077 446.864Z" fill="#EA4040"/>
<path d="M24.8266 212.124L25.8007 213.488L25.403 213.751L24.4288 212.387L24.8266 212.124Z" fill="#67572F" stroke="#919191" stroke-width="0.1"/>
<path fill-rule="evenodd" clip-rule="evenodd" d="M25.2058 213.513C22.7423 215.265 22.6321 218.491 24.5046 221.112C26.3891 223.75 28.0504 222.653 30.6021 220.968C30.6382 220.944 30.6745 220.92 30.711 220.896C30.7474 220.872 30.7837 220.848 30.8199 220.824C33.3772 219.136 35.2118 217.926 33.3273 215.287C31.4879 212.712 28.231 211.753 25.6589 213.223C25.6945 213.303 25.7465 213.374 25.8117 213.434L25.8138 213.436C25.6442 213.498 25.4923 213.598 25.3698 213.726L25.3629 213.734L25.3608 213.73C25.3193 213.651 25.2671 213.578 25.2058 213.513Z" fill="#EA4040"/>
<path d="M21.7992 389.432L22.7733 390.795L22.3756 391.058L21.4014 389.694L21.7992 389.432Z" fill="#67572F" stroke="#919191" stroke-width="0.1"/>
<path fill-rule="evenodd" clip-rule="evenodd" d="M22.1784 390.82C19.7149 392.573 19.6047 395.798 21.4772 398.42C23.3616 401.058 25.023 399.96 27.5747 398.275C27.6108 398.251 27.6471 398.227 27.6836 398.203C27.72 398.179 27.7563 398.155 27.7924 398.131C30.3498 396.444 32.1844 395.233 30.2999 392.595C28.4605 390.02 25.2036 389.06 22.6315 390.531C22.6671 390.61 22.7191 390.682 22.7843 390.741L22.7864 390.743C22.6168 390.806 22.4649 390.905 22.3424 391.034L22.3355 391.041L22.3334 391.037C22.2919 390.959 22.2397 390.886 22.1784 390.82Z" fill="#EA4040"/>
<path d="M15.9424 157.489L15.0539 158.906L14.6407 158.666L15.5292 157.249L15.9424 157.489Z" fill="#67572F" stroke="#919191" stroke-width="0.1"/>
<path fill-rule="evenodd" clip-rule="evenodd" d="M14.7842 158.395C12.1057 156.964 9.00546 158.202 7.29763 160.925C5.57887 163.666 7.30532 164.666 9.95698 166.202C9.9945 166.224 10.0322 166.246 10.0701 166.268C10.1079 166.29 10.1456 166.312 10.1832 166.333C12.8392 167.874 14.7446 168.979 16.4634 166.238C18.1411 163.563 17.7021 160.315 15.246 158.672C15.1855 158.736 15.139 158.811 15.1095 158.893L15.1085 158.895C14.9794 158.773 14.8224 158.681 14.6498 158.627L14.6401 158.624L14.6424 158.621C14.6996 158.552 14.7475 158.476 14.7842 158.395Z" fill="#EA4040"/>
<path d="M26.0627 98.2056L26.6196 99.771L26.163 99.9211L25.6062 98.3557L26.0627 98.2056Z" fill="#67572F" stroke="#919191" stroke-width="0.1"/>
<path fill-rule="evenodd" clip-rule="evenodd" d="M29.4021 108.134C32.3372 107.17 34.4429 106.478 33.3657 103.45C32.3143 100.494 29.4458 98.7284 26.5574 99.4792C26.5696 99.5652 26.5998 99.6481 26.646 99.7228L26.6474 99.7252C26.4665 99.7412 26.2923 99.7977 26.1382 99.8902L26.1295 99.8955L26.129 99.8927C26.1107 99.8055 26.0806 99.7209 26.0395 99.6411C23.1767 100.692 22.1684 103.771 23.2388 106.779C24.316 109.808 26.2231 109.18 29.1522 108.216C29.1936 108.203 29.2353 108.189 29.2771 108.175C29.319 108.162 29.3606 108.148 29.4021 108.134ZM26.2104 99.5816L26.2278 99.5759C26.2249 99.5768 26.222 99.5777 26.2191 99.5787C26.2162 99.5796 26.2133 99.5806 26.2104 99.5816Z" fill="#EA4040"/>
<path d="M16.5581 31.352L15.6558 32.7607L15.245 32.5175L16.1472 31.1088L16.5581 31.352Z" fill="#67572F" stroke="#919191" stroke-width="0.1"/>
<path fill-rule="evenodd" clip-rule="evenodd" d="M10.7129 40.1443C13.3538 41.7084 15.2484 42.8305 16.9938 40.1053C18.6975 37.4454 18.2902 34.194 15.8502 32.5288C15.7891 32.5923 15.7419 32.667 15.7115 32.7485L15.7106 32.7511C15.5826 32.6273 15.4266 32.534 15.2545 32.4785L15.2448 32.4754L15.2473 32.4725C15.3051 32.4043 15.3537 32.3281 15.3911 32.2478C12.7267 30.7924 9.61456 32.0024 7.88025 34.7102C6.13484 37.4354 7.85146 38.4511 10.488 40.0112C10.5253 40.0332 10.5628 40.0554 10.6005 40.0777C10.6381 40.1 10.6756 40.1222 10.7129 40.1443ZM15.5507 32.3385L15.5603 32.3442C15.5587 32.3432 15.5571 32.3423 15.5555 32.3413C15.5539 32.3404 15.5523 32.3394 15.5507 32.3385Z" fill="#EA4040"/>
<path d="M21.963 333.07L22.8583 334.483L22.4463 334.724L21.551 333.311L21.963 333.07Z" fill="#67572F" stroke="#919191" stroke-width="0.1"/>
<path fill-rule="evenodd" clip-rule="evenodd" d="M27.4538 342.071C30.103 340.52 32.0036 339.407 30.2716 336.674C28.5811 334.006 25.3834 332.878 22.7317 334.211C22.7628 334.292 22.8106 334.366 22.8723 334.43L22.8743 334.432C22.7014 334.485 22.5441 334.576 22.4145 334.698L22.4072 334.705L22.4057 334.702C22.3687 334.621 22.3202 334.545 22.2627 334.476C19.7036 336.097 19.4106 339.312 21.1316 342.028C22.8635 344.761 24.5847 343.752 27.2282 342.203C27.2656 342.181 27.3032 342.159 27.341 342.137C27.3787 342.115 27.4163 342.093 27.4538 342.071ZM22.3951 334.395L22.4533 334.361C22.4436 334.367 22.4339 334.372 22.4241 334.378C22.4144 334.384 22.4047 334.389 22.3951 334.395Z" fill="#EA4040"/>
<path d="M18.9356 510.377L19.8309 511.79L19.4189 512.031L18.5236 510.619L18.9356 510.377Z" fill="#67572F" stroke="#919191" stroke-width="0.1"/>
<path fill-rule="evenodd" clip-rule="evenodd" d="M24.4264 519.378C27.0756 517.827 28.9762 516.715 27.2442 513.981C25.5537 511.314 22.356 510.185 19.7043 511.518C19.7354 511.599 19.7832 511.674 19.8449 511.737L19.8469 511.739C19.674 511.792 19.5167 511.883 19.3871 512.006L19.3798 512.013L19.3783 512.009C19.3413 511.929 19.2928 511.852 19.2353 511.784C16.6762 513.404 16.3832 516.619 18.1042 519.335C19.8361 522.068 21.5573 521.059 24.2008 519.51C24.2382 519.488 24.2758 519.466 24.3136 519.444C24.3513 519.422 24.3889 519.4 24.4264 519.378ZM19.3683 511.702L19.4253 511.669C19.4158 511.674 19.4062 511.68 19.3967 511.685C19.3872 511.691 19.3777 511.697 19.3683 511.702Z" fill="#EA4040"/>
<path d="M7.17891 158.593L4.88116 161.771C4.62913 162.119 4.9572 162.643 5.39549 162.591L10.5347 161.99C12.4957 161.76 14.1857 160.682 15.1798 159.026L16.0857 156.934C16.2451 156.566 15.8975 156.132 15.4985 156.201L13.9384 156.47C13.4914 156.547 13.0278 156.548 12.5661 156.472C10.432 156.122 8.38202 156.929 7.17891 158.593Z" fill="#1C9A38"/>
<path d="M7.17891 158.593L4.88116 161.771C4.62913 162.119 4.9572 162.643 5.39549 162.591L10.5347 161.99C12.4957 161.76 14.1857 160.682 15.1798 159.026L16.0857 156.934C16.2451 156.566 15.8975 156.132 15.4985 156.201L13.9384 156.47C13.4914 156.547 13.0278 156.548 12.5661 156.472C10.432 156.122 8.38202 156.929 7.17891 158.593Z" fill="#1C9A38"/>
<path d="M8.6736 31.9923L6.37585 35.1699C6.12382 35.5184 6.45189 36.0419 6.89018 35.9906L12.0294 35.3891C13.9904 35.1596 15.6804 34.0812 16.6745 32.425L17.5804 30.3337C17.7398 29.9657 17.3922 29.5314 16.9932 29.6003L15.4331 29.8695C14.9861 29.9467 14.5225 29.9474 14.0608 29.8717C11.9267 29.5215 9.87671 30.3285 8.6736 31.9923Z" fill="#1C9A38"/>
<path d="M30.8169 104.814L34.977 105.63C35.4001 105.713 35.7369 105.21 35.5095 104.834L32.9891 100.674C31.9455 98.952 30.213 97.8344 28.2409 97.6114L25.8538 97.6382C25.4503 97.6428 25.1995 98.1312 25.4291 98.4653L26.2833 99.7081C26.5378 100.078 26.7255 100.496 26.838 100.944C27.3418 102.946 28.8696 104.432 30.8169 104.814Z" fill="#1C9A38"/>
<path d="M30.5657 216.967L34.7671 217.448C35.1966 217.497 35.4914 216.969 35.2328 216.614L32.3578 212.659C31.1738 211.03 29.3539 210.057 27.3692 209.991L24.9947 210.207C24.5921 210.244 24.3823 210.75 24.6394 211.064L25.5986 212.237C25.8837 212.585 26.1063 212.986 26.2565 213.422C26.9309 215.38 28.5845 216.74 30.5657 216.967Z" fill="#1C9A38"/>
<path d="M27.5383 394.274L31.7397 394.755C32.1692 394.805 32.464 394.277 32.2054 393.921L29.3304 389.966C28.1464 388.338 26.3265 387.364 24.3418 387.299L21.9673 387.514C21.5647 387.551 21.3548 388.057 21.612 388.371L22.5712 389.544C22.8563 389.892 23.0789 390.294 23.2291 390.73C23.9034 392.687 25.5571 394.047 27.5383 394.274Z" fill="#1C9A38"/>
<path d="M4.73914 270.572L1.82919 273.266C1.51143 273.561 1.72854 274.134 2.16975 274.166L7.3203 274.542C9.29655 274.685 11.1774 273.946 12.489 272.508L13.8035 270.626C14.0344 270.296 13.78 269.805 13.3738 269.798L11.792 269.769C11.3374 269.761 10.8819 269.674 10.4439 269.513C8.42357 268.769 6.25136 269.172 4.73914 270.572Z" fill="#1C9A38"/>
<path d="M3.91785 446.529L1.0079 449.223C0.690142 449.518 0.907246 450.091 1.34846 450.123L6.49901 450.499C8.47526 450.642 10.3561 449.903 11.6677 448.465L12.9822 446.583C13.2131 446.253 12.9588 445.762 12.5525 445.755L10.9707 445.726C10.5161 445.718 10.0606 445.631 9.62261 445.47C7.60228 444.726 5.43007 445.129 3.91785 446.529Z" fill="#1C9A38"/>
<path d="M27.748 338.923L31.8596 339.974C32.2765 340.08 32.6421 339.596 32.4378 339.208L30.1784 334.92C29.2397 333.138 27.5771 331.922 25.6221 331.589L23.2361 331.481C22.8335 331.463 22.5544 331.937 22.7635 332.283L23.5398 333.571C23.7714 333.955 23.9335 334.384 24.0186 334.837C24.3993 336.863 25.8318 338.433 27.748 338.923Z" fill="#1C9A38"/>
<path d="M24.7206 516.23L28.8322 517.281C29.2491 517.387 29.6147 516.904 29.4104 516.516L27.151 512.227C26.2123 510.445 24.5497 509.23 22.5947 508.896L20.2087 508.788C19.8061 508.77 19.527 509.244 19.7361 509.591L20.5124 510.879C20.744 511.263 20.9061 511.691 20.9912 512.144C21.3719 514.171 22.8044 515.74 24.7206 516.23Z" fill="#1C9A38"/>
<path d="M15.464 0.0868835H22.6804V542.73H15.464V0.0868835Z" fill="#E3A74D"/>
<path d="M16.1908 25.2128L20.1408 2.3231C20.3555 1.07885 21.4345 0.170262 22.6973 0.170268L18.9531 26.0059C18.2976 30.5287 18.2655 35.1206 18.8576 39.6533L26.1091 95.1634C26.3419 96.9452 26.3335 98.75 26.0842 100.529L18.3853 155.472C18.1039 157.481 18.1297 159.521 18.4618 161.522L23.7465 193.367L15.8608 162.414C15.2088 159.855 15.0699 157.192 15.4521 154.58L23.3428 100.646C23.6143 98.7905 23.6233 96.9056 23.3697 95.0469L15.9221 40.4753C15.2299 35.4034 15.3206 30.2559 16.1908 25.2128Z" fill="#28B481"/>
<path d="M15.4061 273.804L23.4607 327.953C24.3461 333.906 23.8592 339.989 22.0371 345.739L20.9704 349.105C20.4951 350.605 18.5575 351.006 17.5376 349.816C17.0941 349.298 16.9467 348.589 17.1466 347.935L17.5971 346.46C19.5574 340.043 20.1569 333.294 19.3571 326.646L13.0253 274.016C12.7774 271.955 12.8525 269.867 13.2477 267.827L23.6394 214.177C24.0605 212.003 24.118 209.776 23.8094 207.587L21.6766 192.457L19.3851 176.851C19.3681 176.735 19.3735 176.617 19.4011 176.502L19.4851 176.154C19.6496 175.474 20.5605 175.338 20.9103 175.942C20.9581 176.024 20.9901 176.115 21.0048 176.209L23.5425 192.457L26.5248 207.028C27.0733 209.708 27.0644 212.475 26.4987 215.157L15.62 266.738C15.1294 269.064 15.057 271.457 15.4061 273.804Z" fill="#28B481"/>
<path d="M15.1771 450.809L21.1013 507.79C21.5511 512.116 21.4332 516.486 20.7507 520.787L17.7196 539.891C17.6178 540.532 17.0627 541.006 16.4128 541.006C15.616 541.006 15.0056 540.304 15.1162 539.515L17.8228 520.204C18.3718 516.286 18.4542 512.32 18.0683 508.389L12.4056 450.692C12.244 449.046 12.2877 447.385 12.5356 445.748L20.5083 393.087C20.9941 389.877 20.692 386.602 19.6281 383.544L15.2701 371.017C15.031 370.33 14.9455 369.598 15.0195 368.872L17.1143 348.335C17.1143 347.216 18.1896 346.405 19.2647 346.713L19.6478 346.823C20.5724 347.088 21.1683 347.981 21.0591 348.938L18.6321 370.216C18.5483 370.95 18.6284 371.693 18.8667 372.391L22.7363 383.731C23.7823 386.796 24.065 390.074 23.5599 393.281L15.3138 445.632C15.0439 447.346 14.9979 449.086 15.1771 450.809Z" fill="#28B481"/>
</svg>
