<svg width="39" height="42" viewBox="0 0 39 42" fill="none" xmlns="http://www.w3.org/2000/svg">
<path d="M7.81438 13.4257L9.03129 10.904L31.371 11.8032L34.9825 13.3155L36.7576 13.9854L35.7359 13.9149L34.7347 14.0284L34.0859 14.3121L34.8773 14.8411L35.0608 16.0216L34.7821 16.2214L34.8222 15.6402L34.0534 14.7843L33.8736 14.9909L34.5718 16.3894L35.1375 16.8298L35.5881 16.058L35.5455 16.6755L35.7666 17.3112L36.8291 17.7494L37.3217 18.7688L36.6242 18.3192L37.5378 19.4771L38.1422 20.7961L37.5027 19.9856L36.5791 18.973L36.0848 18.9389L36.0372 19.6291L35.947 20.9367L36.1914 22.1944L36.1087 23.3931L35.6915 24.6417L34.6134 26.8301L34.5683 27.4839L34.4906 28.6099L34.428 29.518L34.2056 30.3421L33.8302 30.0242L33.8101 30.3148L33.5097 31.7904L32.4129 32.8097L31.7208 32.7619L32.2047 32.4668L32.488 31.72L32.2849 31.3045L31.8235 31.2727L31.0701 30.6733L30.1803 30.6119L30.6191 30.9706L31.0325 31.2181L30.99 31.8356L30.7321 32.6937L29.8401 33.1432L29.7976 33.7607L30.1187 35.8266L30.6418 36.8846L31.2379 37.3636L31.8515 37.5884L29.5295 37.6473L29.4744 38.4464L29.0797 39.368L27.6688 40.6211L26.0213 40.9819L24.0435 40.3711L22.6715 39.6195L21.4008 38.8385L20.2178 36.7861L19.8391 35.5556L19.4765 35.5306L19.4365 36.1118L19.4064 36.5477L19.3789 36.9472L19.0493 36.9245L17.3193 35.6008L14.0896 35.3781L14.9956 36.6449L14.4103 36.9695L13.0841 36.5131L11.6616 36.0135L8.77485 33.6977L8.83748 32.7896L8.64897 31.6817L8.3032 30.4535C8.18082 30.6275 7.87652 31.0007 7.63838 31.1011C7.40024 31.2014 6.93856 31.4421 6.73748 31.5499L5.97948 31.4976L6.87526 29.5521L4.87993 29.1955L4.43278 27.9968L4.01359 26.873C4.16584 27.066 4.57232 27.5101 4.98013 27.7426C5.38795 27.9751 5.87511 27.8895 6.0677 27.8176L5.6568 27.5338L5.04777 26.7619L4.40828 25.9513L4.65573 24.764L5.23314 24.0739L5.20809 24.4372L5.15549 25.2L5.92429 26.0559L6.58343 26.1014L6.621 25.5565L7.1934 24.9391L6.3633 23.5315L5.93486 23.5019L4.95156 23.8356L4.3913 23.7969L3.60034 23.7424L2.89744 22.891L3.34368 21.7904L3.75064 21.563L3.3061 22.3352L3.67048 22.7253L4.02726 22.9689L5.04675 22.4553L5.42854 21.2407L5.22712 19.84L5.07408 18.6981L4.77207 18.2758L4.03622 17.4221L4.97443 17.7423L5.03705 16.8342L5.1818 17.1362L5.38744 17.5153L5.68405 17.5358L5.7091 17.1725L5.45871 16.4819L5.10005 15.9207C4.95724 15.9109 4.56959 15.8341 4.16147 15.606C3.75335 15.3778 3.72036 15.6589 3.75488 15.8279L2.74921 16.295L2.16321 15.7182L2.78603 15.7611L3.81274 14.9889L4.57398 15.0414L7.81438 13.4257Z" fill="black" stroke="black" stroke-width="0.2"/>
<path d="M33.5935 23.0499C33.5935 33.7423 27.9062 33.5896 20.0273 33.5896C12.1484 33.5896 6.99652 33.7423 6.99652 23.0499C6.99652 12.3576 12.1484 3.65867 20.0273 3.65867C27.9062 3.65867 33.5935 12.3576 33.5935 23.0499Z" fill="#2A9B17"/>
<path d="M19.5739 33.8021L19.2941 34.3725C19.1998 34.5647 18.9386 34.5957 18.8019 34.4308L18.4521 33.0573L20.295 33.2533L20.488 34.4308C20.375 34.4988 20.23 34.4798 20.1382 34.3851L19.5739 33.8021Z" fill="#2A9B17"/>
<path d="M11.7402 9.63135L11.1437 10.9161H8.90623L8.79819 10.7684L8.54161 10.1067L8.44708 9.14786L8.54161 8.71572L8.90623 8.12245V7.56784L8.79819 7.18972L8.90623 6.56851L9.04128 6.17688L9.28436 5.82577L9.56796 5.43414L9.71651 4.82643L10.4728 4.19172L11.1437 3.55701L12.0663 2.71974L13.8489 1.85545L15.1993 1.4098L16.1446 1.19373H16.6496L17.0089 1.07219L17.4546 0.991165H18.0488H18.7375L19.2237 1.07219L20.169 1.27476H20.6854H21.3844L21.7355 1.4098L22.3027 1.76092L23.1337 2.09853L24.0312 2.38213L25.1656 2.70623L26.5971 3.17889L27.6501 3.63415L29.0994 4.6728L29.5342 5.61483L30.0656 6.58101L30.7177 7.16072L31.4424 8.12245L31.5632 8.92401L31.853 9.47957L32.1429 10.7115L31.9979 12.3298L26.4926 11.9889L26.7016 11.8247V11.3022L26.0746 9.8243L25.567 9.07787L24.7311 8.57606L23.1337 8.12245L22.0439 7.83881L20.6854 7.6746L19.3568 7.47488H17.7893H16.6496L14.4473 7.9337L12.7496 8.57606L11.7402 9.63135Z" fill="black"/>
<path d="M11.7402 10.9161H11.1437M11.1437 10.9161L11.7402 9.63135L12.7496 8.57606L14.4473 7.9337L16.6496 7.47488H17.7893H19.3568L20.6854 7.6746L22.0439 7.83881L23.1337 8.12245L24.7311 8.57606L25.567 9.07787L26.0746 9.8243L26.7016 11.3022V11.8247L26.4926 11.9889L31.9979 12.3298L32.1429 10.7115L31.853 9.47957L31.5632 8.92401L31.4424 8.12245L30.7177 7.16072L30.0656 6.58101L29.5342 5.61483L29.0994 4.6728L27.6501 3.63415L26.5971 3.17889L25.1656 2.70623L24.0312 2.38213L23.1337 2.09853L22.3027 1.76092L21.7355 1.4098L21.3844 1.27476H20.6854H20.169L19.2237 1.07219L18.7375 0.991165H18.0488H17.4546L17.0089 1.07219L16.6496 1.19373H16.1446L15.1993 1.4098L13.8489 1.85545L12.0663 2.71974L11.1437 3.55701L10.4728 4.19172L9.71651 4.82643L9.56796 5.43414L9.28436 5.82577L9.04128 6.17688L8.90623 6.56851L8.79819 7.18972L8.90623 7.56784V8.12245L8.54161 8.71572L8.44708 9.14786L8.54161 10.1067L8.79819 10.7684L8.90623 10.9161H11.1437Z" stroke="black" stroke-width="0.2"/>
<path d="M18.93 3.08059C18.9505 3.03456 19.0186 3.04443 19.0252 3.09442L19.1384 3.94972C19.1414 3.97189 19.1587 3.98942 19.1808 3.99264L19.9463 4.10374C19.9925 4.11046 20.0051 4.17134 19.9653 4.19582L19.2584 4.63024C19.2416 4.64057 19.2325 4.65983 19.235 4.6794L19.351 5.55487C19.3574 5.60361 19.297 5.63142 19.2642 5.59483L18.7321 5.00191C18.7159 4.98394 18.6892 4.98006 18.6687 4.99271L17.9899 5.40987C17.948 5.43562 17.898 5.39178 17.9181 5.34689L18.2781 4.5405C18.2862 4.52248 18.2829 4.50141 18.2697 4.48672L17.7155 3.86927C17.6843 3.83448 17.7137 3.77968 17.7599 3.7864L18.5254 3.8975C18.5475 3.90071 18.5691 3.88883 18.5782 3.8684L18.93 3.08059Z" fill="white"/>
</svg>
