<svg xmlns="http://www.w3.org/2000/svg" version="1.1" xmlns:xlink="http://www.w3.org/1999/xlink" xmlns:svgjs="http://svgjs.com/svgjs" width="114" height="129"><svg width="114" height="129" viewBox="0 0 114 129" fill="none" xmlns="http://www.w3.org/2000/svg">
<path d="M24.6668 12.8303L26.6616 18.9248C26.7945 19.3309 27.4079 19.3779 27.6278 18.9988L32.014 11.4407C33.1443 9.49298 33.2996 7.21216 32.4401 5.18194L32.063 4.2911L30.141 1.00478C29.939 0.659389 29.3832 0.680001 29.2008 1.03965L27.9962 3.41481C27.7021 3.99475 27.3015 4.52654 26.8117 4.98727C24.5868 7.08007 23.7665 10.0798 24.6668 12.8303Z" fill="#1C9A38"></path>
<path d="M20.8178 21.6932L27.4251 19.9308C27.8798 19.8095 27.9484 19.2511 27.5328 19.0546L19.078 15.057C16.968 14.0594 14.473 13.9329 12.2223 14.7093L11.2353 15.0498L7.60874 16.7782C7.22107 16.963 7.22969 17.4668 7.62329 17.6294L10.2723 18.7239C10.91 18.9874 11.4934 19.3453 11.9989 19.7832C14.3282 21.8008 17.6871 22.5283 20.8178 21.6932Z" fill="#1C9A38"></path>
<path d="M14.583 6.3988L34.0947 23.3705C34.8049 23.9882 34.6918 25.1224 33.8737 25.5878C33.3556 25.8825 32.7062 25.8072 32.2694 25.4017L14.5435 8.94732C13.9897 8.43324 13.3266 8.05137 12.604 7.8304L1.72607 4.504C1.22116 4.34961 0.930259 3.82201 1.06918 3.31263C1.21023 2.79543 1.74169 2.48849 2.26016 2.62478L12.5727 5.33563C13.3156 5.53091 14.0035 5.8947 14.583 6.3988Z" fill="#1C9A38" stroke="#919191" stroke-width="0.1"></path>
<ellipse cx="60.2148" cy="68.874" rx="33.6238" ry="48.8738" transform="rotate(-30 60.2148 68.874)" fill="#DFCE35"></ellipse>
<rect x="79.1041" y="106.862" width="10.6601" height="10.6759" rx="4" transform="rotate(-40 79.1041 106.862)" fill="#DFCE35"></rect>
<rect x="29.143" y="27.6508" width="10.6601" height="10.6759" rx="5.33005" transform="rotate(-40 29.143 27.6508)" fill="#DFCE35"></rect>
<path d="M91.8778 111.852C91.7196 112.867 90.8178 113.598 89.7918 113.541L86.2354 113.346L92.4259 108.333L91.8778 111.852Z" fill="#DFCE35"></path>
</svg><style>@media (prefers-color-scheme: light) { :root { filter: none; } }
</style></svg>