<svg width="323" height="904" viewBox="0 0 323 904" fill="none" xmlns="http://www.w3.org/2000/svg">
<g clip-path="url(#clip0_1_180)" filter="url(#filter0_if_1_180)">
<rect width="320" height="901.56" transform="translate(1.9281 1)" fill="#9F6E54"/>
<g filter="url(#filter1_i_1_180)">
<path d="M40.2492 40.8151L33.5183 1.27087L43.813 40.7402C43.8932 41.0476 43.899 41.3696 43.8299 41.6797L37.4491 70.3331C37.3599 70.7335 37.396 71.1516 37.5525 71.5307L48.8713 98.9615C49.1004 99.5167 49.0678 100.146 48.7826 100.674L37.8779 120.883C37.5293 121.529 37.5626 122.314 37.9647 122.928L50.6313 142.275C50.999 142.837 51.0604 143.546 50.7949 144.162L37.7954 174.342C37.4987 175.031 37.6123 175.828 38.0897 176.406L48.3765 188.871C48.8945 189.499 48.9805 190.378 48.5941 191.094L37.6682 211.343C37.4386 211.768 37.3709 212.262 37.4776 212.734L49.1215 264.191C49.1949 264.515 49.1863 264.853 49.0965 265.173L37.4435 306.703C37.3572 307.011 37.3458 307.335 37.4104 307.648L49.126 364.433C49.1963 364.774 49.1765 365.127 49.0687 365.457L37.5234 400.843C37.3864 401.263 37.3923 401.717 37.54 402.133L50.6589 439.08C50.808 439.5 50.8125 439.958 50.6718 440.381L37.5496 479.802C37.3965 480.262 37.4157 480.762 37.6036 481.208L50.6242 512.175C50.7959 512.583 50.8272 513.037 50.7132 513.465L37.4998 563.083C37.3786 563.538 37.422 564.022 37.6224 564.448L50.5549 591.968C50.7696 592.425 50.8036 592.946 50.6499 593.427L37.4567 634.712C37.3616 635.01 37.3376 635.326 37.3865 635.634L49.505 712.115C49.5443 712.362 49.5365 712.616 49.4822 712.861L37.4101 767.28C37.3456 767.571 37.3469 767.872 37.4138 768.163L52.07 831.685C52.1625 832.086 52.1291 832.505 51.9741 832.887L41.4768 858.726C41.2776 859.217 41.2809 859.766 41.4859 860.254L59.8239 903.894L34.0742 860.43C33.7277 859.845 33.702 859.125 34.006 858.516L46.8019 832.925C47.0039 832.521 47.0632 832.06 46.9702 831.618L33.6123 768.169C33.5504 767.875 33.5556 767.57 33.6274 767.279L47.0131 712.899C47.0796 712.629 47.089 712.348 47.0409 712.075L33.6037 635.651C33.5476 635.332 33.5699 635.004 33.6687 634.695L46.8741 593.428C47.0282 592.946 46.9942 592.424 46.7789 591.967L33.8294 564.449C33.6285 564.022 33.585 563.538 33.7065 563.082L46.9376 513.466C47.0519 513.037 47.0205 512.583 46.8484 512.174L33.8105 481.209C33.6222 480.762 33.6029 480.261 33.7564 479.801L46.896 440.382C47.0372 439.958 47.0326 439.5 46.8831 439.079L33.762 402.176C33.6046 401.734 33.6081 401.249 33.772 400.809L46.903 365.52C47.0405 365.15 47.0657 364.748 46.9753 364.364L33.6453 307.711C33.5622 307.358 33.5767 306.989 33.6872 306.643L46.9378 265.235C47.0528 264.876 47.0638 264.491 46.9695 264.126L33.7308 212.826C33.595 212.3 33.6792 211.741 33.9641 211.278L46.3114 191.214C46.785 190.444 46.6838 189.453 46.0645 188.795L34.4101 176.412C33.8679 175.836 33.7162 174.994 34.0232 174.265L46.7059 144.144C46.9613 143.537 46.902 142.844 46.5472 142.289L34.1949 122.989C33.7812 122.342 33.7739 121.516 34.1762 120.863L46.547 100.76C46.9007 100.185 46.9407 99.4708 46.6533 98.8602L33.8121 71.5727C33.6217 71.1681 33.5724 70.7113 33.6721 70.2754L40.2273 41.5963C40.2859 41.3399 40.2934 41.0744 40.2492 40.8151Z" fill="#9F6E54"/>
</g>
<g filter="url(#filter2_i_1_180)">
<path d="M13.9436 40.8151L7.21271 1.27087L17.5074 40.7402C17.5876 41.0476 17.5934 41.3696 17.5244 41.6797L11.1435 70.3331C11.0544 70.7335 11.0904 71.1516 11.2469 71.5307L22.5657 98.9615C22.7948 99.5167 22.7622 100.146 22.477 100.674L11.5723 120.883C11.2237 121.529 11.257 122.314 11.6591 122.928L24.3257 142.275C24.6934 142.837 24.7549 143.546 24.4893 144.162L11.4898 174.342C11.1931 175.031 11.3067 175.828 11.7841 176.406L22.071 188.871C22.5889 189.499 22.675 190.378 22.2885 191.094L11.3626 211.343C11.133 211.768 11.0653 212.262 11.172 212.734L22.8159 264.191C22.8893 264.515 22.8807 264.853 22.7909 265.173L11.1379 306.703C11.0516 307.011 11.0402 307.335 11.1048 307.648L22.8205 364.433C22.8908 364.774 22.871 365.127 22.7631 365.457L11.2178 400.843C11.0808 401.263 11.0867 401.717 11.2345 402.133L24.3533 439.08C24.5024 439.5 24.507 439.958 24.3662 440.381L11.2441 479.802C11.0909 480.262 11.1101 480.762 11.298 481.208L24.3187 512.175C24.4903 512.583 24.5216 513.037 24.4076 513.465L11.1943 563.083C11.073 563.538 11.1164 564.022 11.3168 564.448L24.2493 591.968C24.4641 592.425 24.498 592.946 24.3443 593.427L11.1511 634.712C11.0561 635.01 11.032 635.326 11.0809 635.634L23.1994 712.115C23.2387 712.362 23.231 712.616 23.1766 712.861L11.1045 767.28C11.04 767.571 11.0413 767.872 11.1083 768.163L25.7644 831.685C25.857 832.086 25.8235 832.505 25.6686 832.887L15.1713 858.726C14.9721 859.217 14.9753 859.766 15.1804 860.254L33.5183 903.894L7.76861 860.43C7.4221 859.845 7.39643 859.125 7.70046 858.516L20.4964 832.925C20.6983 832.521 20.7576 832.06 20.6646 831.618L7.30676 768.169C7.24485 767.875 7.25001 767.57 7.32183 767.279L20.7076 712.899C20.774 712.629 20.7834 712.348 20.7353 712.075L7.29815 635.651C7.24203 635.332 7.26431 635.004 7.36309 634.695L20.5685 593.428C20.7226 592.946 20.6886 592.424 20.4733 591.967L7.52378 564.449C7.32289 564.022 7.27938 563.538 7.40095 563.082L20.632 513.466C20.7463 513.037 20.7149 512.583 20.5428 512.174L7.50496 481.209C7.31658 480.762 7.29735 480.261 7.45086 479.801L20.5905 440.382C20.7316 439.958 20.7271 439.5 20.5775 439.079L7.45646 402.176C7.29901 401.734 7.30254 401.249 7.46645 400.809L20.5974 365.52C20.7349 365.15 20.7601 364.748 20.6698 364.364L7.33968 307.711C7.2566 307.358 7.27111 306.989 7.38167 306.643L20.6323 265.235C20.7473 264.876 20.7583 264.491 20.664 264.126L7.42524 212.826C7.28944 212.3 7.37364 211.741 7.65848 211.278L20.0058 191.214C20.4794 190.444 20.3782 189.453 19.7589 188.795L8.10454 176.412C7.56232 175.836 7.41066 174.994 7.71767 174.265L20.4004 144.144C20.6558 143.537 20.5964 142.844 20.2416 142.289L7.88935 122.989C7.47562 122.342 7.46833 121.516 7.87058 120.863L20.2414 100.76C20.5951 100.185 20.6351 99.4708 20.3478 98.8602L7.50657 71.5727C7.31617 71.1681 7.26685 70.7113 7.36649 70.2754L13.9217 41.5963C13.9803 41.3399 13.9878 41.0744 13.9436 40.8151Z" fill="#9F6E54"/>
</g>
<g filter="url(#filter3_i_1_180)">
<path d="M259.112 40.8151L252.381 1.27087L262.676 40.7402C262.756 41.0476 262.762 41.3696 262.693 41.6797L256.312 70.3331C256.223 70.7335 256.259 71.1516 256.415 71.5307L267.734 98.9615C267.963 99.5167 267.931 100.146 267.645 100.674L256.741 120.883C256.392 121.529 256.425 122.314 256.828 122.928L269.494 142.275C269.862 142.837 269.923 143.546 269.658 144.162L256.658 174.342C256.362 175.031 256.475 175.828 256.953 176.406L267.239 188.871C267.757 189.499 267.843 190.378 267.457 191.094L256.531 211.343C256.301 211.768 256.234 212.262 256.34 212.734L267.984 264.191C268.058 264.515 268.049 264.853 267.959 265.173L256.306 306.703C256.22 307.011 256.209 307.335 256.273 307.648L267.989 364.433C268.059 364.774 268.039 365.127 267.932 365.457L256.386 400.843C256.249 401.263 256.255 401.717 256.403 402.133L269.522 439.08C269.671 439.5 269.675 439.958 269.535 440.381L256.413 479.802C256.259 480.262 256.279 480.762 256.467 481.208L269.487 512.175C269.659 512.583 269.69 513.037 269.576 513.465L256.363 563.083C256.241 563.538 256.285 564.022 256.485 564.448L269.418 591.968C269.633 592.425 269.666 592.946 269.513 593.427L256.32 634.712C256.225 635.01 256.2 635.326 256.249 635.634L268.368 712.115C268.407 712.362 268.399 712.616 268.345 712.861L256.273 767.28C256.208 767.571 256.21 767.872 256.277 768.163L270.933 831.685C271.025 832.086 270.992 832.505 270.837 832.887L260.34 858.726C260.141 859.217 260.144 859.766 260.349 860.254L278.687 903.894L252.937 860.43C252.591 859.845 252.565 859.125 252.869 858.516L265.665 832.925C265.867 832.521 265.926 832.06 265.833 831.618L252.475 768.169C252.413 767.875 252.418 767.57 252.49 767.279L265.876 712.899C265.942 712.629 265.952 712.348 265.904 712.075L252.467 635.651C252.41 635.332 252.433 635.004 252.532 634.695L265.737 593.428C265.891 592.946 265.857 592.424 265.642 591.967L252.692 564.449C252.491 564.022 252.448 563.538 252.569 563.082L265.8 513.466C265.915 513.037 265.883 512.583 265.711 512.174L252.673 481.209C252.485 480.762 252.466 480.261 252.619 479.801L265.759 440.382C265.9 439.958 265.896 439.5 265.746 439.079L252.625 402.176C252.467 401.734 252.471 401.249 252.635 400.809L265.766 365.52C265.903 365.15 265.929 364.748 265.838 364.364L252.508 307.711C252.425 307.358 252.44 306.989 252.55 306.643L265.801 265.235C265.916 264.876 265.927 264.491 265.832 264.126L252.594 212.826C252.458 212.3 252.542 211.741 252.827 211.278L265.174 191.214C265.648 190.444 265.547 189.453 264.927 188.795L253.273 176.412C252.731 175.836 252.579 174.994 252.886 174.265L265.569 144.144C265.824 143.537 265.765 142.844 265.41 142.289L253.058 122.989C252.644 122.342 252.637 121.516 253.039 120.863L265.41 100.76C265.764 100.185 265.804 99.4708 265.516 98.8602L252.675 71.5727C252.485 71.1681 252.435 70.7113 252.535 70.2754L259.09 41.5963C259.149 41.3399 259.156 41.0744 259.112 40.8151Z" fill="#9F6E54"/>
</g>
<g filter="url(#filter4_i_1_180)">
<path d="M219.664 40.8151L212.933 1.27087L223.227 40.7402C223.308 41.0476 223.313 41.3696 223.244 41.6797L216.863 70.3331C216.774 70.7335 216.81 71.1516 216.967 71.5307L228.286 98.9615C228.515 99.5167 228.482 100.146 228.197 100.674L217.292 120.883C216.944 121.529 216.977 122.314 217.379 122.928L230.046 142.275C230.413 142.837 230.475 143.546 230.209 144.162L217.21 174.342C216.913 175.031 217.027 175.828 217.504 176.406L227.791 188.871C228.309 189.499 228.395 190.378 228.008 191.094L217.083 211.343C216.853 211.768 216.785 212.262 216.892 212.734L228.536 264.191C228.609 264.515 228.601 264.853 228.511 265.173L216.858 306.703C216.772 307.011 216.76 307.335 216.825 307.648L228.54 364.433C228.611 364.774 228.591 365.127 228.483 365.457L216.938 400.843C216.801 401.263 216.807 401.717 216.954 402.133L230.073 439.08C230.222 439.5 230.227 439.958 230.086 440.381L216.964 479.802C216.811 480.262 216.83 480.762 217.018 481.208L230.039 512.175C230.21 512.583 230.242 513.037 230.128 513.465L216.914 563.083C216.793 563.538 216.836 564.022 217.037 564.448L229.969 591.968C230.184 592.425 230.218 592.946 230.064 593.427L216.871 634.712C216.776 635.01 216.752 635.326 216.801 635.634L228.919 712.115C228.959 712.362 228.951 712.616 228.897 712.861L216.825 767.28C216.76 767.571 216.761 767.872 216.828 768.163L231.484 831.685C231.577 832.086 231.543 832.505 231.389 832.887L220.891 858.726C220.692 859.217 220.695 859.766 220.9 860.254L239.238 903.894L213.489 860.43C213.142 859.845 213.116 859.125 213.42 858.516L226.216 832.925C226.418 832.521 226.478 832.06 226.385 831.618L213.027 768.169C212.965 767.875 212.97 767.57 213.042 767.279L226.428 712.899C226.494 712.629 226.503 712.348 226.455 712.075L213.018 635.651C212.962 635.332 212.984 635.004 213.083 634.695L226.288 593.428C226.443 592.946 226.409 592.424 226.193 591.967L213.244 564.449C213.043 564.022 212.999 563.538 213.121 563.082L226.352 513.466C226.466 513.037 226.435 512.583 226.263 512.174L213.225 481.209C213.037 480.762 213.017 480.261 213.171 479.801L226.31 440.382C226.452 439.958 226.447 439.5 226.298 439.079L213.176 402.176C213.019 401.734 213.023 401.249 213.186 400.809L226.317 365.52C226.455 365.15 226.48 364.748 226.39 364.364L213.06 307.711C212.977 307.358 212.991 306.989 213.102 306.643L226.352 265.235C226.467 264.876 226.478 264.491 226.384 264.126L213.145 212.826C213.009 212.3 213.094 211.741 213.378 211.278L225.726 191.214C226.199 190.444 226.098 189.453 225.479 188.795L213.825 176.412C213.282 175.836 213.131 174.994 213.438 174.265L226.12 144.144C226.376 143.537 226.316 142.844 225.962 142.289L213.609 122.989C213.196 122.342 213.188 121.516 213.591 120.863L225.961 100.76C226.315 100.185 226.355 99.4708 226.068 98.8602L213.227 71.5727C213.036 71.1681 212.987 70.7113 213.086 70.2754L219.642 41.5963C219.7 41.3399 219.708 41.0744 219.664 40.8151Z" fill="#9F6E54"/>
</g>
<g filter="url(#filter5_i_1_180)">
<path d="M302.353 40.8151L295.623 1.27087L305.917 40.7402C305.997 41.0476 306.003 41.3696 305.934 41.6797L299.553 70.3331C299.464 70.7335 299.5 71.1516 299.657 71.5307L310.976 98.9615C311.205 99.5167 311.172 100.146 310.887 100.674L299.982 120.883C299.634 121.529 299.667 122.314 300.069 122.928L312.736 142.275C313.103 142.837 313.165 143.546 312.899 144.162L299.9 174.342C299.603 175.031 299.717 175.828 300.194 176.406L310.481 188.871C310.999 189.499 311.085 190.378 310.698 191.094L299.772 211.343C299.543 211.768 299.475 212.262 299.582 212.734L311.226 264.191C311.299 264.515 311.291 264.853 311.201 265.173L299.548 306.703C299.461 307.011 299.45 307.335 299.515 307.648L311.23 364.433C311.301 364.774 311.281 365.127 311.173 365.457L299.628 400.843C299.491 401.263 299.497 401.717 299.644 402.133L312.763 439.08C312.912 439.5 312.917 439.958 312.776 440.381L299.654 479.802C299.501 480.262 299.52 480.762 299.708 481.208L312.729 512.175C312.9 512.583 312.931 513.037 312.817 513.465L299.604 563.083C299.483 563.538 299.526 564.022 299.727 564.448L312.659 591.968C312.874 592.425 312.908 592.946 312.754 593.427L299.561 634.712C299.466 635.01 299.442 635.326 299.491 635.634L311.609 712.115C311.649 712.362 311.641 712.616 311.586 712.861L299.514 767.28C299.45 767.571 299.451 767.872 299.518 768.163L314.174 831.685C314.267 832.086 314.233 832.505 314.078 832.887L303.581 858.726C303.382 859.217 303.385 859.766 303.59 860.254L321.928 903.894L296.178 860.43C295.832 859.845 295.806 859.125 296.11 858.516L308.906 832.925C309.108 832.521 309.167 832.06 309.074 831.618L295.717 768.169C295.655 767.875 295.66 767.57 295.732 767.279L309.117 712.899C309.184 712.629 309.193 712.348 309.145 712.075L295.708 635.651C295.652 635.332 295.674 635.004 295.773 634.695L308.978 593.428C309.132 592.946 309.098 592.424 308.883 591.967L295.934 564.449C295.733 564.022 295.689 563.538 295.811 563.082L309.042 513.466C309.156 513.037 309.125 512.583 308.953 512.174L295.915 481.209C295.726 480.762 295.707 480.261 295.861 479.801L309 440.382C309.141 439.958 309.137 439.5 308.987 439.079L295.866 402.176C295.709 401.734 295.712 401.249 295.876 400.809L309.007 365.52C309.145 365.15 309.17 364.748 309.08 364.364L295.75 307.711C295.666 307.358 295.681 306.989 295.792 306.643L309.042 265.235C309.157 264.876 309.168 264.491 309.074 264.126L295.835 212.826C295.699 212.3 295.783 211.741 296.068 211.278L308.416 191.214C308.889 190.444 308.788 189.453 308.169 188.795L296.514 176.412C295.972 175.836 295.821 174.994 296.128 174.265L308.81 144.144C309.066 143.537 309.006 142.844 308.651 142.289L296.299 122.989C295.885 122.342 295.878 121.516 296.28 120.863L308.651 100.76C309.005 100.185 309.045 99.4708 308.758 98.8602L295.916 71.5727C295.726 71.1681 295.677 70.7113 295.776 70.2754L302.332 41.5963C302.39 41.3399 302.398 41.0744 302.353 40.8151Z" fill="#9F6E54"/>
</g>
<g filter="url(#filter6_i_1_180)">
<path d="M91.7293 40.4052L100.21 1.27087L96.5388 40.5359C96.4981 40.9718 96.6015 41.4091 96.8332 41.7805L113.542 68.5702C113.715 68.8482 113.818 69.1646 113.84 69.4915L115.886 99.2614C115.912 99.6386 115.83 100.015 115.651 100.348L104.57 120.883C104.221 121.529 104.255 122.314 104.657 122.928L117.323 142.275C117.691 142.837 117.753 143.546 117.487 144.162L104.356 174.648C104.132 175.168 104.139 175.758 104.375 176.272L110.313 189.224C110.515 189.666 110.55 190.166 110.411 190.632L104.155 211.499C104.056 211.829 104.044 212.179 104.12 212.515L115.814 264.191C115.887 264.515 115.878 264.853 115.789 265.173L104.113 306.783C104.041 307.039 104.021 307.308 104.054 307.572L111.238 364.953V401.491L108.554 439.728V480.241C108.554 480.423 108.579 480.604 108.628 480.779L117.434 512.279C117.53 512.623 117.533 512.987 117.441 513.332L104.192 563.083C104.071 563.538 104.114 564.022 104.314 564.448L117.247 591.968C117.462 592.425 117.496 592.946 117.342 593.427L104.149 634.712C104.054 635.01 104.03 635.326 104.079 635.634L116.197 712.115C116.236 712.362 116.229 712.616 116.174 712.861L104.102 767.28C104.038 767.571 104.039 767.872 104.106 768.163L118.762 831.685C118.855 832.086 118.821 832.505 118.666 832.887L108.169 858.726C107.97 859.217 107.973 859.766 108.178 860.254L126.516 903.894L100.766 860.43C100.42 859.845 100.394 859.125 100.698 858.516L113.494 832.925C113.696 832.521 113.755 832.06 113.662 831.618L100.304 768.169C100.243 767.875 100.248 767.57 100.319 767.279L113.705 712.899C113.772 712.629 113.781 712.348 113.733 712.075L100.296 635.651C100.24 635.332 100.262 635.004 100.361 634.695L113.566 593.428C113.72 592.946 113.686 592.424 113.471 591.967L100.521 564.449C100.321 564.022 100.277 563.538 100.399 563.082L113.659 513.355C113.755 512.995 113.749 512.616 113.64 512.259L104.09 480.799C104.033 480.611 104.004 480.415 104.004 480.218V439.728L106.765 401.491L108.545 365.145C108.551 365.017 108.545 364.889 108.526 364.762L100.276 307.628C100.233 307.328 100.258 307.021 100.351 306.732L113.63 265.235C113.745 264.876 113.756 264.491 113.662 264.126L100.352 212.55C100.259 212.192 100.268 211.815 100.377 211.462L106.781 190.649C106.927 190.173 106.891 189.66 106.679 189.209L100.59 176.271C100.348 175.757 100.336 175.166 100.556 174.643L113.398 144.144C113.653 143.537 113.594 142.844 113.239 142.289L100.887 122.989C100.473 122.342 100.466 121.516 100.868 120.863L113.446 100.424C113.679 100.045 113.779 99.5983 113.73 99.1554L110.678 71.6908C110.645 71.3878 110.542 71.0966 110.379 70.8392L91.9957 41.9012C91.7136 41.457 91.6178 40.9195 91.7293 40.4052Z" fill="#9F6E54"/>
</g>
<g filter="url(#filter7_i_1_180)">
<path d="M162.102 40.4052L170.583 1.27087L166.912 40.5359C166.871 40.9718 166.974 41.4091 167.206 41.7805L183.915 68.5702C184.088 68.8482 184.19 69.1646 184.213 69.4915L186.258 99.2614C186.284 99.6386 186.203 100.015 186.023 100.348L174.943 120.883C174.594 121.529 174.627 122.314 175.03 122.928L187.696 142.275C188.064 142.837 188.125 143.546 187.86 144.162L174.729 174.648C174.505 175.168 174.512 175.758 174.747 176.272L180.686 189.224C180.888 189.666 180.923 190.166 180.783 190.632L174.528 211.499C174.429 211.829 174.417 212.179 174.493 212.515L186.186 264.191C186.26 264.515 186.251 264.853 186.161 265.173L174.486 306.783C174.414 307.039 174.394 307.308 174.427 307.572L181.611 364.953V401.491L178.927 439.728V480.241C178.927 480.423 178.952 480.604 179.001 480.779L187.807 512.279C187.903 512.623 187.905 512.987 187.813 513.332L174.565 563.083C174.443 563.538 174.487 564.022 174.687 564.448L187.62 591.968C187.835 592.425 187.868 592.946 187.715 593.427L174.522 634.712C174.426 635.01 174.402 635.326 174.451 635.634L186.57 712.115C186.609 712.362 186.601 712.616 186.547 712.861L174.475 767.28C174.41 767.571 174.412 767.872 174.479 768.163L189.135 831.685C189.227 832.086 189.194 832.505 189.039 832.887L178.542 858.726C178.343 859.217 178.346 859.766 178.551 860.254L196.889 903.894L171.139 860.43C170.793 859.845 170.767 859.125 171.071 858.516L183.867 832.925C184.069 832.521 184.128 832.06 184.035 831.618L170.677 768.169C170.615 767.875 170.62 767.57 170.692 767.279L184.078 712.899C184.144 712.629 184.154 712.348 184.106 712.075L170.669 635.651C170.612 635.332 170.635 635.004 170.734 634.695L183.939 593.428C184.093 592.946 184.059 592.424 183.844 591.967L170.894 564.449C170.693 564.022 170.65 563.538 170.771 563.082L184.032 513.355C184.128 512.995 184.121 512.616 184.013 512.259L174.463 480.799C174.406 480.611 174.377 480.415 174.377 480.218V439.728L177.137 401.491L178.917 365.145C178.924 365.017 178.918 364.889 178.899 364.762L170.649 307.628C170.606 307.328 170.631 307.021 170.724 306.732L184.003 265.235C184.118 264.876 184.129 264.491 184.034 264.126L170.724 212.55C170.632 212.192 170.641 211.815 170.749 211.462L177.153 190.649C177.3 190.173 177.263 189.66 177.051 189.209L170.963 176.271C170.721 175.757 170.709 175.166 170.929 174.643L183.771 144.144C184.026 143.537 183.967 142.844 183.612 142.289L171.26 122.989C170.846 122.342 170.839 121.516 171.241 120.863L183.818 100.424C184.052 100.045 184.152 99.5983 184.103 99.1554L181.051 71.6908C181.017 71.3878 180.915 71.0966 180.751 70.8392L162.369 41.9012C162.086 41.457 161.991 40.9195 162.102 40.4052Z" fill="#9F6E54"/>
</g>
<g filter="url(#filter8_i_1_180)">
<path d="M127.141 40.4052L135.623 1.27087L131.951 40.5359C131.91 40.9718 132.014 41.4091 132.245 41.7805L148.954 68.5702C149.127 68.8482 149.23 69.1646 149.252 69.4915L151.298 99.2614C151.324 99.6386 151.242 100.015 151.063 100.348L139.982 120.883C139.634 121.529 139.667 122.314 140.069 122.928L152.736 142.275C153.103 142.837 153.165 143.546 152.899 144.162L139.768 174.648C139.544 175.168 139.551 175.758 139.787 176.272L145.725 189.224C145.927 189.666 145.962 190.166 145.823 190.632L139.567 211.499C139.468 211.829 139.456 212.179 139.532 212.515L151.226 264.191C151.299 264.515 151.29 264.853 151.201 265.173L139.525 306.783C139.453 307.039 139.433 307.308 139.466 307.572L146.65 364.953V401.491L143.966 439.728V480.241C143.966 480.423 143.991 480.604 144.04 480.779L152.846 512.279C152.942 512.623 152.945 512.987 152.853 513.332L139.604 563.083C139.483 563.538 139.526 564.022 139.727 564.448L152.659 591.968C152.874 592.425 152.908 592.946 152.754 593.427L139.561 634.712C139.466 635.01 139.442 635.326 139.491 635.634L151.609 712.115C151.648 712.362 151.641 712.616 151.586 712.861L139.514 767.28C139.45 767.571 139.451 767.872 139.518 768.163L154.174 831.685C154.267 832.086 154.233 832.505 154.078 832.887L143.581 858.726C143.382 859.217 143.385 859.766 143.59 860.254L161.928 903.894L136.178 860.43C135.832 859.845 135.806 859.125 136.11 858.516L148.906 832.925C149.108 832.521 149.167 832.06 149.074 831.618L135.717 768.169C135.655 767.875 135.66 767.57 135.732 767.279L149.117 712.899C149.184 712.629 149.193 712.348 149.145 712.075L135.708 635.651C135.652 635.332 135.674 635.004 135.773 634.695L148.978 593.428C149.132 592.946 149.098 592.424 148.883 591.967L135.934 564.449C135.733 564.022 135.689 563.538 135.811 563.082L149.071 513.355C149.167 512.995 149.161 512.616 149.053 512.259L139.503 480.799C139.445 480.611 139.416 480.415 139.416 480.218V439.728L142.177 401.491L143.957 365.145C143.963 365.017 143.957 364.889 143.939 364.762L135.688 307.628C135.645 307.328 135.671 307.021 135.763 306.732L149.042 265.235C149.157 264.876 149.168 264.491 149.074 264.126L135.764 212.55C135.671 212.192 135.68 211.815 135.789 211.462L142.193 190.649C142.339 190.173 142.303 189.66 142.091 189.209L136.002 176.271C135.76 175.757 135.748 175.166 135.968 174.643L148.81 144.144C149.066 143.537 149.006 142.844 148.651 142.289L136.299 122.989C135.885 122.342 135.878 121.516 136.28 120.863L148.858 100.424C149.091 100.045 149.191 99.5983 149.142 99.1554L146.09 71.6908C146.057 71.3878 145.954 71.0966 145.791 70.8392L127.408 41.9012C127.126 41.457 127.03 40.9195 127.141 40.4052Z" fill="#9F6E54"/>
</g>
<g filter="url(#filter9_i_1_180)">
<path d="M59.9978 40.4052L68.4789 1.27087L64.8074 40.5359C64.7666 40.9718 64.87 41.4091 65.1017 41.7805L81.8104 68.5702C81.9838 68.8482 82.0862 69.1646 82.1087 69.4915L84.1542 99.2614C84.1801 99.6386 84.0986 100.015 83.919 100.348L72.8385 120.883C72.4899 121.529 72.5232 122.314 72.9253 122.928L85.5919 142.275C85.9596 142.837 86.0211 143.546 85.7555 144.162L72.6244 174.648C72.4005 175.168 72.4074 175.758 72.6433 176.272L78.5813 189.224C78.7839 189.666 78.8186 190.166 78.6791 190.632L72.4236 211.499C72.3247 211.829 72.3127 212.179 72.3887 212.515L84.0821 264.191C84.1555 264.515 84.1469 264.853 84.0571 265.173L72.3817 306.783C72.3098 307.039 72.2898 307.308 72.3228 307.572L79.5065 364.953V401.491L76.8225 439.728V480.241C76.8225 480.423 76.8474 480.604 76.8964 480.779L85.7027 512.279C85.7989 512.623 85.8011 512.987 85.7092 513.332L72.4605 563.083C72.3392 563.538 72.3826 564.022 72.583 564.448L85.5155 591.968C85.7303 592.425 85.7642 592.946 85.6105 593.427L72.4173 634.712C72.3222 635.01 72.2982 635.326 72.3471 635.634L84.4656 712.115C84.5049 712.362 84.4971 712.616 84.4428 712.861L72.3707 767.28C72.3062 767.571 72.3075 767.872 72.3745 768.163L87.0306 831.685C87.1232 832.086 87.0897 832.505 86.9347 832.887L76.4375 858.726C76.2383 859.217 76.2415 859.766 76.4466 860.254L94.7845 903.894L69.0348 860.43C68.6883 859.845 68.6626 859.125 68.9666 858.516L81.7625 832.925C81.9645 832.521 82.0238 832.06 81.9308 831.618L68.5729 768.169C68.511 767.875 68.5162 767.57 68.588 767.279L81.9737 712.899C82.0402 712.629 82.0496 712.348 82.0015 712.075L68.5643 635.651C68.5082 635.332 68.5305 635.004 68.6293 634.695L81.8347 593.428C81.9888 592.946 81.9548 592.424 81.7395 591.967L68.79 564.449C68.5891 564.022 68.5456 563.538 68.6671 563.082L81.9276 513.355C82.0236 512.995 82.0171 512.616 81.9089 512.259L72.359 480.799C72.3018 480.611 72.2727 480.415 72.2727 480.218V439.728L75.0332 401.491L76.8131 365.145C76.8193 365.017 76.8133 364.889 76.7949 364.762L68.5448 307.628C68.5014 307.328 68.5269 307.021 68.6194 306.732L81.8985 265.235C82.0135 264.876 82.0244 264.491 81.9302 264.126L68.6202 212.55C68.5278 212.192 68.5365 211.815 68.6452 211.462L75.0491 190.649C75.1955 190.173 75.1592 189.66 74.9472 189.209L68.8584 176.271C68.6168 175.757 68.6046 175.166 68.8247 174.643L81.6666 144.144C81.9219 143.537 81.8626 142.844 81.5078 142.289L69.1555 122.989C68.7418 122.342 68.7345 121.516 69.1368 120.863L81.7141 100.424C81.9476 100.045 82.0478 99.5983 81.9985 99.1554L78.9468 71.6908C78.9131 71.3878 78.8106 71.0966 78.6472 70.8392L60.2643 41.9012C59.9821 41.457 59.8864 40.9195 59.9978 40.4052Z" fill="#9F6E54"/>
</g>
</g>
<defs>
<filter id="filter0_if_1_180" x="0.928101" y="0" width="322" height="903.56" filterUnits="userSpaceOnUse" color-interpolation-filters="sRGB">
<feFlood flood-opacity="0" result="BackgroundImageFix"/>
<feBlend mode="normal" in="SourceGraphic" in2="BackgroundImageFix" result="shape"/>
<feColorMatrix in="SourceAlpha" type="matrix" values="0 0 0 0 0 0 0 0 0 0 0 0 0 0 0 0 0 0 127 0" result="hardAlpha"/>
<feMorphology radius="1" operator="erode" in="SourceAlpha" result="effect1_innerShadow_1_180"/>
<feOffset dy="901.56"/>
<feComposite in2="hardAlpha" operator="arithmetic" k2="-1" k3="1"/>
<feColorMatrix type="matrix" values="0 0 0 0 0 0 0 0 0 0 0 0 0 0 0 0 0 0 0.2 0"/>
<feBlend mode="normal" in2="shape" result="effect1_innerShadow_1_180"/>
<feGaussianBlur stdDeviation="0.5" result="effect2_foregroundBlur_1_180"/>
</filter>
<filter id="filter1_i_1_180" x="33.5183" y="1.27087" width="26.3056" height="906.623" filterUnits="userSpaceOnUse" color-interpolation-filters="sRGB">
<feFlood flood-opacity="0" result="BackgroundImageFix"/>
<feBlend mode="normal" in="SourceGraphic" in2="BackgroundImageFix" result="shape"/>
<feColorMatrix in="SourceAlpha" type="matrix" values="0 0 0 0 0 0 0 0 0 0 0 0 0 0 0 0 0 0 127 0" result="hardAlpha"/>
<feOffset dy="4"/>
<feGaussianBlur stdDeviation="2"/>
<feComposite in2="hardAlpha" operator="arithmetic" k2="-1" k3="1"/>
<feColorMatrix type="matrix" values="0 0 0 0 0 0 0 0 0 0 0 0 0 0 0 0 0 0 0.25 0"/>
<feBlend mode="normal" in2="shape" result="effect1_innerShadow_1_180"/>
</filter>
<filter id="filter2_i_1_180" x="7.21271" y="1.27087" width="26.3056" height="906.623" filterUnits="userSpaceOnUse" color-interpolation-filters="sRGB">
<feFlood flood-opacity="0" result="BackgroundImageFix"/>
<feBlend mode="normal" in="SourceGraphic" in2="BackgroundImageFix" result="shape"/>
<feColorMatrix in="SourceAlpha" type="matrix" values="0 0 0 0 0 0 0 0 0 0 0 0 0 0 0 0 0 0 127 0" result="hardAlpha"/>
<feOffset dy="4"/>
<feGaussianBlur stdDeviation="2"/>
<feComposite in2="hardAlpha" operator="arithmetic" k2="-1" k3="1"/>
<feColorMatrix type="matrix" values="0 0 0 0 0 0 0 0 0 0 0 0 0 0 0 0 0 0 0.25 0"/>
<feBlend mode="normal" in2="shape" result="effect1_innerShadow_1_180"/>
</filter>
<filter id="filter3_i_1_180" x="252.381" y="1.27087" width="26.3056" height="906.623" filterUnits="userSpaceOnUse" color-interpolation-filters="sRGB">
<feFlood flood-opacity="0" result="BackgroundImageFix"/>
<feBlend mode="normal" in="SourceGraphic" in2="BackgroundImageFix" result="shape"/>
<feColorMatrix in="SourceAlpha" type="matrix" values="0 0 0 0 0 0 0 0 0 0 0 0 0 0 0 0 0 0 127 0" result="hardAlpha"/>
<feOffset dy="4"/>
<feGaussianBlur stdDeviation="2"/>
<feComposite in2="hardAlpha" operator="arithmetic" k2="-1" k3="1"/>
<feColorMatrix type="matrix" values="0 0 0 0 0 0 0 0 0 0 0 0 0 0 0 0 0 0 0.25 0"/>
<feBlend mode="normal" in2="shape" result="effect1_innerShadow_1_180"/>
</filter>
<filter id="filter4_i_1_180" x="212.933" y="1.27087" width="26.3056" height="906.623" filterUnits="userSpaceOnUse" color-interpolation-filters="sRGB">
<feFlood flood-opacity="0" result="BackgroundImageFix"/>
<feBlend mode="normal" in="SourceGraphic" in2="BackgroundImageFix" result="shape"/>
<feColorMatrix in="SourceAlpha" type="matrix" values="0 0 0 0 0 0 0 0 0 0 0 0 0 0 0 0 0 0 127 0" result="hardAlpha"/>
<feOffset dy="4"/>
<feGaussianBlur stdDeviation="2"/>
<feComposite in2="hardAlpha" operator="arithmetic" k2="-1" k3="1"/>
<feColorMatrix type="matrix" values="0 0 0 0 0 0 0 0 0 0 0 0 0 0 0 0 0 0 0.25 0"/>
<feBlend mode="normal" in2="shape" result="effect1_innerShadow_1_180"/>
</filter>
<filter id="filter5_i_1_180" x="295.623" y="1.27087" width="26.3056" height="906.623" filterUnits="userSpaceOnUse" color-interpolation-filters="sRGB">
<feFlood flood-opacity="0" result="BackgroundImageFix"/>
<feBlend mode="normal" in="SourceGraphic" in2="BackgroundImageFix" result="shape"/>
<feColorMatrix in="SourceAlpha" type="matrix" values="0 0 0 0 0 0 0 0 0 0 0 0 0 0 0 0 0 0 127 0" result="hardAlpha"/>
<feOffset dy="4"/>
<feGaussianBlur stdDeviation="2"/>
<feComposite in2="hardAlpha" operator="arithmetic" k2="-1" k3="1"/>
<feColorMatrix type="matrix" values="0 0 0 0 0 0 0 0 0 0 0 0 0 0 0 0 0 0 0.25 0"/>
<feBlend mode="normal" in2="shape" result="effect1_innerShadow_1_180"/>
</filter>
<filter id="filter6_i_1_180" x="91.6839" y="1.27087" width="34.832" height="906.623" filterUnits="userSpaceOnUse" color-interpolation-filters="sRGB">
<feFlood flood-opacity="0" result="BackgroundImageFix"/>
<feBlend mode="normal" in="SourceGraphic" in2="BackgroundImageFix" result="shape"/>
<feColorMatrix in="SourceAlpha" type="matrix" values="0 0 0 0 0 0 0 0 0 0 0 0 0 0 0 0 0 0 127 0" result="hardAlpha"/>
<feOffset dy="4"/>
<feGaussianBlur stdDeviation="2"/>
<feComposite in2="hardAlpha" operator="arithmetic" k2="-1" k3="1"/>
<feColorMatrix type="matrix" values="0 0 0 0 0 0 0 0 0 0 0 0 0 0 0 0 0 0 0.25 0"/>
<feBlend mode="normal" in2="shape" result="effect1_innerShadow_1_180"/>
</filter>
<filter id="filter7_i_1_180" x="162.057" y="1.27087" width="34.8321" height="906.623" filterUnits="userSpaceOnUse" color-interpolation-filters="sRGB">
<feFlood flood-opacity="0" result="BackgroundImageFix"/>
<feBlend mode="normal" in="SourceGraphic" in2="BackgroundImageFix" result="shape"/>
<feColorMatrix in="SourceAlpha" type="matrix" values="0 0 0 0 0 0 0 0 0 0 0 0 0 0 0 0 0 0 127 0" result="hardAlpha"/>
<feOffset dy="4"/>
<feGaussianBlur stdDeviation="2"/>
<feComposite in2="hardAlpha" operator="arithmetic" k2="-1" k3="1"/>
<feColorMatrix type="matrix" values="0 0 0 0 0 0 0 0 0 0 0 0 0 0 0 0 0 0 0.25 0"/>
<feBlend mode="normal" in2="shape" result="effect1_innerShadow_1_180"/>
</filter>
<filter id="filter8_i_1_180" x="127.096" y="1.27087" width="34.8321" height="906.623" filterUnits="userSpaceOnUse" color-interpolation-filters="sRGB">
<feFlood flood-opacity="0" result="BackgroundImageFix"/>
<feBlend mode="normal" in="SourceGraphic" in2="BackgroundImageFix" result="shape"/>
<feColorMatrix in="SourceAlpha" type="matrix" values="0 0 0 0 0 0 0 0 0 0 0 0 0 0 0 0 0 0 127 0" result="hardAlpha"/>
<feOffset dy="4"/>
<feGaussianBlur stdDeviation="2"/>
<feComposite in2="hardAlpha" operator="arithmetic" k2="-1" k3="1"/>
<feColorMatrix type="matrix" values="0 0 0 0 0 0 0 0 0 0 0 0 0 0 0 0 0 0 0.25 0"/>
<feBlend mode="normal" in2="shape" result="effect1_innerShadow_1_180"/>
</filter>
<filter id="filter9_i_1_180" x="59.9524" y="1.27087" width="34.8321" height="906.623" filterUnits="userSpaceOnUse" color-interpolation-filters="sRGB">
<feFlood flood-opacity="0" result="BackgroundImageFix"/>
<feBlend mode="normal" in="SourceGraphic" in2="BackgroundImageFix" result="shape"/>
<feColorMatrix in="SourceAlpha" type="matrix" values="0 0 0 0 0 0 0 0 0 0 0 0 0 0 0 0 0 0 127 0" result="hardAlpha"/>
<feOffset dy="4"/>
<feGaussianBlur stdDeviation="2"/>
<feComposite in2="hardAlpha" operator="arithmetic" k2="-1" k3="1"/>
<feColorMatrix type="matrix" values="0 0 0 0 0 0 0 0 0 0 0 0 0 0 0 0 0 0 0.25 0"/>
<feBlend mode="normal" in2="shape" result="effect1_innerShadow_1_180"/>
</filter>
<clipPath id="clip0_1_180">
<rect width="320" height="901.56" fill="white" transform="translate(1.9281 1)"/>
</clipPath>
</defs>
</svg>
