<svg width="1922" height="136" viewBox="0 0 1922 136" fill="none" xmlns="http://www.w3.org/2000/svg">
<g filter="url(#filter0_f_1_180)">
<rect width="1920" height="134" transform="translate(1 1)" fill="#51A5E2"/>
<path d="M322.467 44.1946L322.274 45.4884C322.115 46.5541 322.616 47.6102 323.542 48.1619C324.031 48.4539 324.415 48.8983 324.635 49.4246C325.376 51.2053 324.073 53.1796 322.144 53.1796H273.528C273.01 53.1796 272.674 52.6344 272.907 52.172L274.332 49.3373C274.755 48.4969 274.7 47.4956 274.189 46.7059L272.559 44.1859C272.009 43.3356 272.083 42.2246 272.742 41.4556L273.132 41.0005C273.809 40.2113 273.651 39.0097 272.794 38.4215C271.874 37.7896 271.773 36.4685 272.588 35.7048L276.513 32.0251C276.898 31.6642 277.328 31.355 277.793 31.1053L278.16 30.9082C281.977 28.858 286.726 30.0404 289.136 33.6407C289.805 34.6402 291.276 34.6358 291.939 33.6323L292.508 32.7704C294.605 29.5964 298.668 28.3692 302.171 29.8515L303.068 30.231C304.917 31.0131 307.033 30.8285 308.718 29.7381C310.96 28.287 313.889 28.4765 315.926 30.2044L317.541 31.5745C318.925 32.7488 319.918 34.318 320.385 36.072L321.153 38.9516L322.24 41.9407C322.502 42.6614 322.58 43.4361 322.467 44.1946Z" fill="white"/>
<path d="M483.875 70.0801L483.682 71.3739C483.523 72.4396 484.023 73.4957 484.949 74.0474C485.439 74.3394 485.823 74.7837 486.042 75.3101C486.784 77.0908 485.48 79.0651 483.551 79.0651H434.935C434.418 79.0651 434.082 78.5199 434.314 78.0575L435.739 75.2228C436.162 74.3824 436.108 73.3811 435.597 72.5914L433.966 70.0714C433.416 69.2211 433.491 68.1101 434.15 67.3411L434.54 66.886C435.216 66.0968 435.059 64.8952 434.202 64.307C433.281 63.6751 433.181 62.3539 433.995 61.5903L437.92 57.9106C438.305 57.5497 438.736 57.2405 439.2 56.9908L439.567 56.7937C443.384 54.7435 448.133 55.9259 450.543 59.5262C451.212 60.5257 452.683 60.5213 453.346 59.5178L453.916 58.6559C456.013 55.4819 460.075 54.2547 463.578 55.737L464.476 56.1165C466.324 56.8986 468.44 56.714 470.125 55.6236C472.368 54.1725 475.296 54.362 477.333 56.0899L478.948 57.46C480.333 58.6343 481.325 60.2035 481.793 61.9575L482.561 64.8371L483.648 67.8262C483.91 68.5469 483.988 69.3216 483.875 70.0801Z" fill="white"/>
<path d="M711.459 33.1296L711.266 34.4234C711.107 35.4891 711.608 36.5452 712.533 37.0969C713.023 37.3888 713.407 37.8332 713.626 38.3595C714.368 40.1402 713.065 42.1145 711.136 42.1145H662.52C662.002 42.1145 661.666 41.5693 661.898 41.107L663.324 38.2722C663.747 37.4319 663.692 36.4305 663.181 35.6408L661.551 33.1208C661 32.2705 661.075 31.1595 661.734 30.3906L662.124 29.9355C662.801 29.1462 662.643 27.9446 661.786 27.3564C660.866 26.7246 660.765 25.4034 661.58 24.6397L665.505 20.96C665.89 20.5991 666.32 20.2899 666.785 20.0402L667.152 19.8432C670.968 17.7929 675.718 18.9753 678.128 22.5757C678.797 23.5752 680.268 23.5707 680.931 22.5672L681.5 21.7054C683.597 18.5313 687.659 17.3042 691.163 18.7864L692.06 19.166C693.909 19.9481 696.025 19.7634 697.71 18.673C699.952 17.222 702.881 17.4114 704.918 19.1393L706.533 20.5095C707.917 21.6838 708.909 23.2529 709.377 25.0069L710.145 27.8866L711.232 30.8756C711.494 31.5963 711.572 32.3711 711.459 33.1296Z" fill="white"/>
<path d="M1328.04 71.9578L1327.84 73.2516C1327.68 74.3173 1328.18 75.3734 1329.11 75.9251C1329.6 76.2171 1329.98 76.6614 1330.2 77.1878C1330.94 78.9685 1329.64 80.9427 1327.71 80.9427H1279.1C1278.58 80.9427 1278.24 80.3976 1278.47 79.9352L1279.9 77.1004C1280.32 76.2601 1280.27 75.2588 1279.76 74.4691L1278.13 71.9491C1277.58 71.0987 1277.65 69.9878 1278.31 69.2188L1278.7 68.7637C1279.38 67.9745 1279.22 66.7728 1278.36 66.1847C1277.44 65.5528 1277.34 64.2316 1278.16 63.468L1282.08 59.7882C1282.47 59.4274 1282.9 59.1182 1283.36 58.8685L1283.73 58.6714C1287.54 56.6212 1292.29 57.8036 1294.7 61.4039C1295.37 62.4034 1296.84 62.399 1297.51 61.3955L1298.08 60.5336C1300.17 57.3596 1304.24 56.1324 1307.74 57.6147L1308.64 57.9942C1310.49 58.7763 1312.6 58.5917 1314.29 57.5013C1316.53 56.0502 1319.46 56.2396 1321.49 57.9676L1323.11 59.3377C1324.49 60.512 1325.49 62.0812 1325.95 63.8352L1326.72 66.7148L1327.81 69.7039C1328.07 70.4246 1328.15 71.1993 1328.04 71.9578Z" fill="white"/>
<path d="M1214.24 57.1374L1214.05 58.4312C1213.89 59.4969 1214.39 60.553 1215.32 61.1047C1215.81 61.3967 1216.19 61.841 1216.41 62.3673C1217.15 64.148 1215.85 66.1223 1213.92 66.1223H1165.3C1164.79 66.1223 1164.45 65.5771 1164.68 65.1148L1166.11 62.28C1166.53 61.4397 1166.48 60.4383 1165.97 59.6486L1164.33 57.1286C1163.78 56.2783 1163.86 55.1674 1164.52 54.3984L1164.91 53.9433C1165.58 53.154 1165.43 51.9524 1164.57 51.3642C1163.65 50.7324 1163.55 49.4112 1164.36 48.6475L1168.29 44.9678C1168.67 44.6069 1169.1 44.2977 1169.57 44.048L1169.94 43.851C1173.75 41.8007 1178.5 42.9831 1180.91 46.5835C1181.58 47.583 1183.05 47.5785 1183.71 46.575L1184.28 45.7132C1186.38 42.5391 1190.44 41.312 1193.95 42.7942L1194.84 43.1738C1196.69 43.9559 1198.81 43.7712 1200.49 42.6808C1202.74 41.2298 1205.66 41.4192 1207.7 43.1471L1209.32 44.5173C1210.7 45.6916 1211.69 47.2608 1212.16 49.0147L1212.93 51.8944L1214.02 54.8834C1214.28 55.6042 1214.36 56.3789 1214.24 57.1374Z" fill="white"/>
<path d="M1421.65 44.1946L1421.46 45.4884C1421.3 46.5541 1421.8 47.6102 1422.73 48.1619C1423.22 48.4539 1423.6 48.8983 1423.82 49.4246C1424.56 51.2053 1423.26 53.1796 1421.33 53.1796H1372.71C1372.19 53.1796 1371.86 52.6344 1372.09 52.172L1373.52 49.3373C1373.94 48.4969 1373.88 47.4956 1373.37 46.7059L1371.74 44.1859C1371.19 43.3356 1371.27 42.2246 1371.93 41.4556L1372.32 41.0005C1372.99 40.2113 1372.84 39.0097 1371.98 38.4215C1371.06 37.7896 1370.96 36.4685 1371.77 35.7048L1375.7 32.0251C1376.08 31.6642 1376.51 31.355 1376.98 31.1053L1377.34 30.9082C1381.16 28.858 1385.91 30.0404 1388.32 33.6407C1388.99 34.6402 1390.46 34.6358 1391.12 33.6323L1391.69 32.7704C1393.79 29.5964 1397.85 28.3692 1401.36 29.8515L1402.25 30.231C1404.1 31.0131 1406.22 30.8285 1407.9 29.7381C1410.15 28.287 1413.07 28.4765 1415.11 30.2044L1416.73 31.5745C1418.11 32.7488 1419.1 34.318 1419.57 36.072L1420.34 38.9516L1421.42 41.9407C1421.69 42.6614 1421.76 43.4361 1421.65 44.1946Z" fill="white"/>
<path d="M1717.03 44.1946L1716.83 45.4884C1716.68 46.5541 1717.18 47.6102 1718.1 48.1619C1718.59 48.4539 1718.98 48.8983 1719.19 49.4246C1719.94 51.2053 1718.63 53.1796 1716.7 53.1796H1668.09C1667.57 53.1796 1667.23 52.6344 1667.47 52.172L1668.89 49.3373C1669.31 48.4969 1669.26 47.4956 1668.75 46.7059L1667.12 44.1859C1666.57 43.3356 1666.64 42.2246 1667.3 41.4556L1667.69 41.0005C1668.37 40.2113 1668.21 39.0097 1667.35 38.4215C1666.43 37.7896 1666.33 36.4685 1667.15 35.7048L1671.07 32.0251C1671.46 31.6642 1671.89 31.355 1672.35 31.1053L1672.72 30.9082C1676.54 28.858 1681.29 30.0404 1683.7 33.6407C1684.37 34.6402 1685.84 34.6358 1686.5 33.6323L1687.07 32.7704C1689.17 29.5964 1693.23 28.3692 1696.73 29.8515L1697.63 30.231C1699.48 31.0131 1701.59 30.8285 1703.28 29.7381C1705.52 28.287 1708.45 28.4765 1710.49 30.2044L1712.1 31.5745C1713.49 32.7488 1714.48 34.318 1714.95 36.072L1715.71 38.9516L1716.8 41.9407C1717.06 42.6614 1717.14 43.4361 1717.03 44.1946Z" fill="white"/>
</g>
<defs>
<filter id="filter0_f_1_180" x="0" y="0" width="1922" height="136" filterUnits="userSpaceOnUse" color-interpolation-filters="sRGB">
<feFlood flood-opacity="0" result="BackgroundImageFix"/>
<feBlend mode="normal" in="SourceGraphic" in2="BackgroundImageFix" result="shape"/>
<feGaussianBlur stdDeviation="0.5" result="effect1_foregroundBlur_1_180"/>
</filter>
</defs>
</svg>
