<svg width="51" height="56" viewBox="0 0 51 56" fill="none" xmlns="http://www.w3.org/2000/svg">
<ellipse cx="25.5519" cy="27.7946" rx="15.6203" ry="22.7049" transform="rotate(-30 25.5519 27.7946)" fill="#DFCE35"/>
<rect x="34.3272" y="45.4423" width="4.95228" height="4.95961" rx="2.47614" transform="rotate(-40 34.3272 45.4423)" fill="#DFCE35"/>
<rect x="11.1171" y="8.64375" width="4.95228" height="4.95961" rx="2.47614" transform="rotate(-40 11.1171 8.64375)" fill="#DFCE35"/>
<path d="M22.1977 23.7768L23.92 22.3451C24.0932 22.2011 24.0131 21.9459 23.7908 21.9332L22.254 21.8458C21.3209 21.7927 20.3815 22.1361 19.6958 22.781L18.9557 23.6188C18.8218 23.7705 18.9219 23.9873 19.1253 23.986L19.6038 23.983C19.792 23.9818 19.9753 24.0192 20.1407 24.0926C20.8011 24.3855 21.6159 24.2604 22.1977 23.7768Z" fill="#1C9A38"/>
<path d="M26.3393 21.301L24.1762 21.8816C23.9587 21.94 23.7964 21.7273 23.9144 21.5384L24.7298 20.2327C25.2248 19.4401 26.0474 18.871 26.9697 18.683L28.081 18.5621C28.2822 18.5402 28.4015 18.7471 28.2831 18.9125L28.0045 19.3015C27.8949 19.4546 27.8197 19.6259 27.7842 19.8033C27.6424 20.5116 27.0701 21.1049 26.3393 21.301Z" fill="#1C9A38"/>
<path d="M21.1062 19.6645L24.6176 22.2627C24.7514 22.3617 24.7322 22.5674 24.5824 22.6399C24.5061 22.6768 24.4154 22.6669 24.3488 22.6143L21.0833 20.0357L21.0805 20.055C21.0744 20.0967 21.0129 20.0923 21.0129 20.0502C21.0129 20.0218 21.0456 20.006 21.0679 20.0235L21.0833 20.0357L21.1289 19.7195C21.132 19.6983 21.1233 19.6773 21.1062 19.6645Z" fill="#1C9A38"/>
<path d="M21.0129 19.5955L24.6176 22.2627C24.7514 22.3617 24.7322 22.5674 24.5824 22.6399V22.6399C24.5061 22.6768 24.4154 22.6669 24.3488 22.6143L21.0679 20.0235C21.0456 20.006 21.0129 20.0218 21.0129 20.0502V20.0502C21.0129 20.0923 21.0744 20.0967 21.0805 20.055L21.1289 19.7195C21.132 19.6982 21.1232 19.677 21.1059 19.6643L21.0129 19.5955Z" stroke="#919191" stroke-width="0.1"/>
<path d="M40.4105 46.8029C40.2524 47.8183 39.3505 48.5486 38.3245 48.4921L37.6401 48.4545L40.516 46.1257L40.4105 46.8029Z" fill="#DFCE35"/>
<rect x="9.31534" y="20.4399" width="9.76801" height="5.1242" transform="rotate(-25.9466 9.31534 20.4399)" fill="#C4C4C4"/>
<path d="M7.63616 17.1498L9.38349 20.3325L8.88426 21.6429L7.07452 18.3355L7.63616 17.1498Z" stroke="#639820"/>
<path d="M31.1336 10.4321L28.6734 7.83929L28.0989 8.59063L30.3233 10.3437L31.1336 10.4321Z" stroke="#639820"/>
<rect x="21.4325" y="14.815" width="9.76801" height="5.1242" transform="rotate(-25.9466 21.4325 14.815)" fill="#C4C4C4"/>
<path d="M19.5763 14.8977L18.2303 16.3447L19.9817 15.5418L21.4938 14.9369L19.5763 14.8977Z" stroke="#639820" stroke-width="0.2"/>
<path d="M10.0444 22.2612L9.21982 22.0433L9.60842 20.9629L10.0444 22.2612Z" fill="#639820" stroke="#639820"/>
<path d="M30.6068 10.811L31.4534 10.9141L31.2162 12.0375L30.6068 10.811Z" fill="#639820" stroke="#639820"/>
</svg>
