<svg width="101" height="104" viewBox="0 0 101 104" fill="none" xmlns="http://www.w3.org/2000/svg">
<path d="M16.3048 36.0654C19.0049 35.5219 21.4171 33.8489 23.0485 31.3881C24.68 28.9273 25.4075 25.8644 25.0824 22.8253C24.7574 19.7862 23.4043 17.0002 21.2997 15.0366C19.1951 13.0731 16.4977 12.0801 13.7588 12.2606C11.0199 12.441 8.44611 13.7814 6.56336 16.0077C4.68061 18.234 3.63099 21.1783 3.62895 24.239C3.62692 27.2997 4.67262 30.2457 6.55241 32.4751C8.4322 34.7046 11.0042 36.0492 13.7429 36.2342L14.3936 24.2479L16.3048 36.0654Z" fill="#ECF773"/>
<ellipse rx="0.728244" ry="0.675027" transform="matrix(0.355118 0.934821 -0.904075 0.427374 14.5233 24.1867)" fill="white"/>
<path d="M14.8084 23.6174L20.8358 14.6255" stroke="white" stroke-width="0.5"/>
<path d="M15.0913 24.526L25.054 25.9591" stroke="white" stroke-width="0.5"/>
<path d="M14.8094 24.6783L21.0729 33.6609" stroke="white" stroke-width="0.5"/>
<path d="M14.3545 24.7452L10.6269 35.4972" stroke="white" stroke-width="0.5"/>
<path d="M13.8942 24.0496L3.60368 23.3866" stroke="white" stroke-width="0.5"/>
<path d="M14.1957 23.727L10.6215 12.9891" stroke="white" stroke-width="0.5"/>
<path d="M14.6146 98.3926V28.4923C14.6146 25.7309 16.8532 23.4923 19.6146 23.4923H53.5668C56.3282 23.4923 58.5668 25.7309 58.5668 28.4923V98.3926C58.5668 101.154 56.3282 103.393 53.5668 103.393H36.5907H19.6146C16.8532 103.393 14.6146 101.154 14.6146 98.3926Z" stroke="black"/>
<path d="M16.6494 98.5027V44.1938V34.848C16.6494 32.0866 18.888 29.848 21.6494 29.848H51.5319C54.2934 29.848 56.5319 32.0866 56.5319 34.848V96.5767C56.5319 99.3381 54.2933 101.577 51.5319 101.577H19.7235C18.0257 101.577 16.6494 100.2 16.6494 98.5027Z" fill="#FFFA7B"/>
<path d="M30.3592 98.897L44.3606 24.4442L49.8241 15.7766L71.5581 0.919892L73.4122 4.66509L53.1172 18.3026L48.1654 26.4998L34.3328 99.559C34.1308 100.626 33.2436 101.413 32.2438 101.413C31.0034 101.413 30.1102 100.221 30.3592 98.897Z" fill="#F1CFA6"/>
<path d="M48.5616 17.738L50.7658 20.2046L48.2154 19.4468L50.1647 22.4846L47.76 21.203L49.397 24.2479" stroke="#E9E9E9" stroke-width="0.85"/>
<rect width="11.1237" height="10.4248" rx="5" transform="matrix(0.717895 0.696151 -0.61467 0.788785 36.5906 26.215)" fill="#F1EFEF"/>
<rect width="11.1237" height="10.4248" rx="5" transform="matrix(0.717895 0.696151 -0.61467 0.788785 25.3466 40.197)" fill="#F1EFEF"/>
<rect width="10.7929" height="10.717" rx="5" transform="matrix(0.895619 -0.444822 0.370686 0.928758 39.4374 43.504)" fill="#F1EFEF"/>
<rect width="10.7929" height="10.717" rx="5" transform="matrix(0.895619 -0.444822 0.370686 0.928758 40.9405 29.0487)" fill="#F1EFEF"/>
<rect width="10.7929" height="10.717" rx="5" transform="matrix(0.895619 -0.444822 0.370686 0.928758 20.1049 29.0487)" fill="#F1EFEF"/>
</svg>
