<svg width="192" height="191" viewBox="0 0 192 191" fill="none" xmlns="http://www.w3.org/2000/svg">
<path d="M17.9606 42.9036L32.6141 62.2572L27.4987 72.6449L3.36737 73.794L2.21826 114.177L27.4987 117.789L32.5877 127.966L14.6943 146.024L44.243 175.08L64.2704 159.977L74.7765 164.081L77.8956 189.198H115.16L119.92 164.081L130.591 159.977L150.454 174.259L177.704 148.486L161.453 127.966L165.885 117.789L190.673 116.147V76.2564L165.885 72.6449L161.453 62.2572L177.704 42.9036L148.976 15.2555L129.934 30.7385L119.264 26.0237L118.115 1.23572H77.2389L74.7765 26.0237L64.1329 30.7385L44.5027 15.2555L17.9606 42.9036Z" fill="#F2E253"/>
<g filter="url(#filter0_i_5_406)">
<circle cx="96.4455" cy="95.2168" r="27.9852" fill="#F2E253"/>
</g>
<path d="M68.764 91.9316V91.9168C68.764 91.2468 68.8313 90.5784 68.965 89.9218L69.2672 88.4372L69.9925 86.0541L50.7803 76.6126L30.3198 68.8963L52.2087 81.8078L68.764 91.9316Z" fill="#FAEC72"/>
<path d="M79.3736 72.9519L80.6041 72.051L82.7185 70.675L84.9254 69.5196L78.1715 49.2062L69.3125 29.2139L75.4722 53.8692L79.3736 72.9519Z" fill="#FAEC72"/>
<path d="M103.114 67.9158L104.638 68.4283L106.977 69.3278L109.226 70.2273L118.562 49.8419L125.869 29.2315L113.396 51.3736L103.114 67.9158Z" fill="#FAEC72"/>
<path d="M122.144 83.8854L122.409 84.5036C122.626 85.0107 122.801 85.535 122.932 86.0711L123.325 87.681L124.116 90.3428L145.487 78.268L163.464 65.8169L140.401 76.491L122.144 83.8854Z" fill="#FAEC72"/>
<path d="M140.749 114.41L121.532 107.665C121.142 108.781 120.518 109.802 119.703 110.66L119.33 111.053L116.535 113.679L143.45 119.072L165.199 121.34L140.749 114.41Z" fill="#FAEC72"/>
<path d="M113.858 117.245L112.587 117.88C112.012 118.168 111.411 118.399 110.791 118.571L109.216 119.009L105.549 119.606L115.055 144.377L124.431 164.132L117.632 139.645L113.858 117.245Z" fill="#FAEC72"/>
<path d="M85.2398 118.368L83.9139 118.256C83.2707 118.202 82.6342 118.086 82.0133 117.91L80.5327 117.488L77.2112 116.134L72.7016 141.429L70.5856 162.507L77.1856 138.812L85.2398 118.368Z" fill="#FAEC72"/>
<path d="M50.3472 112.652L69.9757 104.169C69.1686 102.824 68.7423 101.285 68.7423 99.7159L68.7423 99.6464L68.7423 96.9054L44.7761 111.945L31.493 125.17L50.3472 112.652Z" fill="#FAEC72"/>
<path d="M15.0187 146.106L44.4844 175.024L64.6308 160.222L75.1836 164.471L77.9246 189.551H115.339L119.999 164.471L130.963 160.222L150.698 174.476L177.834 148.71L161.525 128.29L165.911 117.737L190.58 116.229V76.2108L165.911 72.2363L161.525 62.5058L177.56 42.6335L149.328 15.3606L130.552 30.299L119.451 25.7764L118.491 1.38147H77.2394L74.6354 25.7764L64.4937 30.299L44.3473 15.3606L17.7596 43.1817L32.424 62.0947L27.7643 72.6476L3.64347 73.881L1.86182 114.174H2.82116L27.7643 118.285L32.424 127.879L15.0187 146.106Z" stroke="#639820" stroke-width="2"/>
<defs>
<filter id="filter0_i_5_406" x="68.4603" y="67.2316" width="55.9703" height="59.9703" filterUnits="userSpaceOnUse" color-interpolation-filters="sRGB">
<feFlood flood-opacity="0" result="BackgroundImageFix"/>
<feBlend mode="normal" in="SourceGraphic" in2="BackgroundImageFix" result="shape"/>
<feColorMatrix in="SourceAlpha" type="matrix" values="0 0 0 0 0 0 0 0 0 0 0 0 0 0 0 0 0 0 127 0" result="hardAlpha"/>
<feOffset dy="4"/>
<feGaussianBlur stdDeviation="2"/>
<feComposite in2="hardAlpha" operator="arithmetic" k2="-1" k3="1"/>
<feColorMatrix type="matrix" values="0 0 0 0 0 0 0 0 0 0 0 0 0 0 0 0 0 0 0.25 0"/>
<feBlend mode="normal" in2="shape" result="effect1_innerShadow_5_406"/>
</filter>
</defs>
</svg>
