<svg width="37" height="543" viewBox="0 0 37 543" fill="none" xmlns="http://www.w3.org/2000/svg">
<ellipse cx="27.7466" cy="103.488" rx="2.68137" ry="3.8975" transform="rotate(-24.6948 27.7466 103.488)" fill="#DFCE35"/>
<rect x="28.9664" y="106.644" width="0.850102" height="0.85136" rx="0.425051" transform="rotate(-34.6948 28.9664 106.644)" fill="#DFCE35"/>
<rect x="25.5833" y="99.986" width="0.850102" height="0.85136" rx="0.425051" transform="rotate(-34.6948 25.5833 99.986)" fill="#DFCE35"/>
<ellipse cx="27.7466" cy="103.488" rx="2.68137" ry="3.8975" transform="rotate(-24.6948 27.7466 103.488)" fill="#DFCE35"/>
<rect x="28.9664" y="106.644" width="0.850102" height="0.85136" rx="0.425051" transform="rotate(-34.6948 28.9664 106.644)" fill="#DFCE35"/>
<rect x="25.5833" y="99.986" width="0.850102" height="0.85136" rx="0.425051" transform="rotate(-34.6948 25.5833 99.986)" fill="#DFCE35"/>
<ellipse cx="24.5908" cy="518.44" rx="2.68137" ry="3.8975" transform="rotate(-24.6948 24.5908 518.44)" fill="#DFCE35"/>
<rect x="25.8106" y="521.596" width="0.850102" height="0.85136" rx="0.425051" transform="rotate(-34.6948 25.8106 521.596)" fill="#DFCE35"/>
<rect x="22.4276" y="514.938" width="0.850102" height="0.85136" rx="0.425051" transform="rotate(-34.6948 22.4276 514.938)" fill="#DFCE35"/>
<ellipse cx="24.7985" cy="393.803" rx="2.68137" ry="3.8975" transform="rotate(-36.7724 24.7985 393.803)" fill="#DFCE35"/>
<rect x="26.6515" y="396.634" width="0.850102" height="0.85136" rx="0.425051" transform="rotate(-46.7724 26.6515 396.634)" fill="#DFCE35"/>
<rect x="21.9502" y="390.831" width="0.850102" height="0.85136" rx="0.425051" transform="rotate(-46.7724 21.9502 390.831)" fill="#DFCE35"/>
<ellipse cx="10.2618" cy="450.693" rx="2.68137" ry="3.8975" transform="rotate(47.3226 10.2618 450.693)" fill="#DFCE35"/>
<rect x="7.63681" y="452.828" width="0.850102" height="0.85136" rx="0.425051" transform="rotate(37.3226 7.63681 452.828)" fill="#DFCE35"/>
<rect x="12.9252" y="447.555" width="0.850102" height="0.85136" rx="0.425051" transform="rotate(37.3226 12.9252 447.555)" fill="#DFCE35"/>
<ellipse cx="25.178" cy="338.02" rx="2.68137" ry="3.8975" transform="rotate(-24.6948 25.178 338.02)" fill="#DFCE35"/>
<rect x="26.3978" y="341.176" width="0.850102" height="0.85136" rx="0.425051" transform="rotate(-34.6948 26.3978 341.176)" fill="#DFCE35"/>
<rect x="23.0147" y="334.517" width="0.850102" height="0.85136" rx="0.425051" transform="rotate(-34.6948 23.0147 334.517)" fill="#DFCE35"/>
<ellipse cx="12.2728" cy="275.812" rx="2.68137" ry="3.8975" transform="rotate(22.6661 12.2728 275.812)" fill="#DFCE35"/>
<rect x="10.7776" y="278.847" width="0.850102" height="0.85136" rx="0.425051" transform="rotate(12.6661 10.7776 278.847)" fill="#DFCE35"/>
<rect x="13.3839" y="271.848" width="0.850102" height="0.85136" rx="0.425051" transform="rotate(12.6661 13.3839 271.848)" fill="#DFCE35"/>
<ellipse cx="29.0775" cy="217.165" rx="2.68137" ry="3.8975" transform="rotate(-24.6948 29.0775 217.165)" fill="#DFCE35"/>
<rect x="30.2973" y="220.32" width="0.850102" height="0.85136" rx="0.425051" transform="rotate(-34.6948 30.2973 220.32)" fill="#DFCE35"/>
<rect x="26.9142" y="213.662" width="0.850102" height="0.85136" rx="0.425051" transform="rotate(-34.6948 26.9142 213.662)" fill="#DFCE35"/>
<ellipse cx="13.8305" cy="161.157" rx="2.68137" ry="3.8975" transform="rotate(23.6654 13.8305 161.157)" fill="#DFCE35"/>
<rect x="12.2827" y="164.165" width="0.850102" height="0.85136" rx="0.425051" transform="rotate(13.6654 12.2827 164.165)" fill="#DFCE35"/>
<rect x="15.0106" y="157.213" width="0.850102" height="0.85136" rx="0.425051" transform="rotate(13.6654 15.0106 157.213)" fill="#DFCE35"/>
<ellipse cx="13.8306" cy="36.8542" rx="2.68137" ry="3.8975" transform="rotate(41.3749 13.8306 36.8542)" fill="#DFCE35"/>
<rect x="11.4409" y="39.2492" width="0.850102" height="0.85136" rx="0.425051" transform="rotate(31.3749 11.4409 39.2492)" fill="#DFCE35"/>
<rect x="16.1544" y="33.4562" width="0.850102" height="0.85136" rx="0.425051" transform="rotate(31.3749 16.1544 33.4562)" fill="#DFCE35"/>
<path d="M13.2262 446.13L12.3644 447.562L11.9468 447.329L12.8086 445.897L13.2262 446.13Z" fill="#67572F" stroke="#919191" stroke-width="0.1"/>
<path d="M22.1767 389.624L23.1508 390.987L22.7531 391.25L21.779 389.886L22.1767 389.624Z" fill="#67572F" stroke="#919191" stroke-width="0.1"/>
<path d="M26.4403 98.3976L26.9971 99.963L26.5406 100.113L25.9837 98.5477L26.4403 98.3976Z" fill="#67572F" stroke="#919191" stroke-width="0.1"/>
<path d="M19.3131 510.569L20.2084 511.982L19.7964 512.224L18.9011 510.811L19.3131 510.569Z" fill="#67572F" stroke="#919191" stroke-width="0.1"/>
<path d="M7.55645 158.785L5.2587 161.963C5.00666 162.311 5.33473 162.835 5.77302 162.783L10.9122 162.182C12.8732 161.952 14.5632 160.874 15.5573 159.218L16.4632 157.126C16.6226 156.758 16.275 156.324 15.8761 156.393L14.316 156.662C13.869 156.739 13.4053 156.74 12.9436 156.664C10.8096 156.314 8.75955 157.121 7.55645 158.785Z" fill="#1C9A38"/>
<path d="M7.55645 158.785L5.2587 161.963C5.00666 162.311 5.33473 162.835 5.77302 162.783L10.9122 162.182C12.8732 161.952 14.5632 160.874 15.5573 159.218L16.4632 157.126C16.6226 156.758 16.275 156.324 15.8761 156.393L14.316 156.662C13.869 156.739 13.4053 156.74 12.9436 156.664C10.8096 156.314 8.75955 157.121 7.55645 158.785Z" fill="#1C9A38"/>
<path d="M9.05114 32.1843L6.75339 35.3619C6.50136 35.7104 6.82943 36.234 7.26772 36.1827L12.4069 35.5812C14.3679 35.3517 16.0579 34.2732 17.052 32.617L17.9579 30.5257C18.1173 30.1577 17.7697 29.7235 17.3708 29.7923L15.8107 30.0616C15.3637 30.1387 14.9 30.1394 14.4383 30.0637C12.3043 29.7136 10.2542 30.5206 9.05114 32.1843Z" fill="#1C9A38"/>
<path d="M31.1945 105.006L35.3545 105.822C35.7776 105.905 36.1144 105.402 35.887 105.026L33.3667 100.867C32.323 99.144 30.5906 98.0264 28.6184 97.8034L26.2313 97.8303C25.8278 97.8348 25.577 98.3232 25.8066 98.6573L26.6609 99.9002C26.9153 100.27 27.1031 100.689 27.2155 101.136C27.7193 103.138 29.2471 104.625 31.1945 105.006Z" fill="#1C9A38"/>
<path d="M30.9432 217.159L35.1446 217.64C35.5742 217.689 35.8689 217.161 35.6104 216.806L32.7354 212.851C31.5513 211.222 29.7315 210.249 27.7467 210.183L25.3722 210.399C24.9696 210.436 24.7598 210.942 25.0169 211.256L25.9762 212.429C26.2612 212.777 26.4839 213.178 26.6341 213.614C27.3084 215.572 28.962 216.932 30.9432 217.159Z" fill="#1C9A38"/>
<path d="M27.9158 394.466L32.1172 394.948C32.5468 394.997 32.8415 394.469 32.583 394.113L29.7079 390.158C28.5239 388.53 26.7041 387.556 24.7193 387.491L22.3448 387.706C21.9422 387.743 21.7324 388.249 21.9895 388.564L22.9488 389.736C23.2338 390.084 23.4565 390.486 23.6067 390.922C24.281 392.879 25.9346 394.239 27.9158 394.466Z" fill="#1C9A38"/>
<path d="M5.11666 270.764L2.20671 273.458C1.88896 273.753 2.10606 274.326 2.54728 274.358L7.69783 274.734C9.67407 274.877 11.5549 274.138 12.8665 272.7L14.181 270.818C14.4119 270.488 14.1576 269.997 13.7513 269.99L12.1695 269.961C11.7149 269.953 11.2594 269.866 10.8214 269.705C8.80109 268.961 6.62889 269.364 5.11666 270.764Z" fill="#1C9A38"/>
<path d="M4.29538 446.721L1.38542 449.415C1.06767 449.71 1.28477 450.283 1.72599 450.315L6.87654 450.691C8.85278 450.834 10.7337 450.095 12.0452 448.657L13.3597 446.775C13.5906 446.445 13.3363 445.954 12.93 445.947L11.3482 445.918C10.8936 445.91 10.4381 445.823 10.0001 445.662C7.9798 444.918 5.8076 445.321 4.29538 446.721Z" fill="#1C9A38"/>
<path d="M28.1255 339.115L32.2372 340.166C32.654 340.272 33.0196 339.788 32.8153 339.4L30.5559 335.112C29.6172 333.33 27.9547 332.114 25.9996 331.781L23.6136 331.673C23.211 331.655 22.9319 332.129 23.141 332.475L23.9174 333.763C24.149 334.147 24.311 334.576 24.3961 335.029C24.7768 337.055 26.2093 338.625 28.1255 339.115Z" fill="#1C9A38"/>
<path d="M25.0981 516.422L29.2097 517.473C29.6266 517.58 29.9922 517.096 29.7879 516.708L27.5285 512.419C26.5898 510.637 24.9273 509.422 22.9722 509.088L20.5862 508.98C20.1836 508.962 19.9045 509.436 20.1136 509.783L20.89 511.071C21.1216 511.455 21.2836 511.883 21.3687 512.336C21.7494 514.363 23.1819 515.932 25.0981 516.422Z" fill="#1C9A38"/>
<path d="M15.8415 0.278906H23.0579V542.922H15.8415V0.278906Z" fill="#E3A74D"/>
<path d="M16.5683 25.4048L20.5183 2.51512C20.733 1.27087 21.812 0.362282 23.0748 0.362288L19.3306 26.1979C18.6751 30.7208 18.643 35.3127 19.2351 39.8453L26.4866 95.3554C26.7193 97.1372 26.711 98.942 26.4617 100.721L18.7628 155.664C18.4814 157.673 18.5072 159.713 18.8393 161.714L24.124 193.559L16.2383 162.606C15.5863 160.047 15.4474 157.384 15.8296 154.772L23.7203 100.838C23.9918 98.9825 24.0008 97.0976 23.7471 95.2389L16.2996 40.6673C15.6074 35.5954 15.6981 30.4479 16.5683 25.4048Z" fill="#28B481"/>
<path d="M15.7836 273.996L23.8382 328.145C24.7236 334.098 24.2367 340.181 22.4146 345.931L21.3479 349.297C20.8726 350.797 18.935 351.198 17.9152 350.008C17.4716 349.49 17.3242 348.781 17.5241 348.127L17.9746 346.652C19.935 340.235 20.5344 333.486 19.7347 326.838L13.4028 274.208C13.155 272.147 13.23 270.059 13.6253 268.019L24.0169 214.369C24.438 212.195 24.4955 209.968 24.1869 207.779L22.0542 192.649L19.7626 177.043C19.7456 176.927 19.751 176.809 19.7786 176.694L19.8627 176.347C20.0272 175.666 20.938 175.53 21.2878 176.134C21.3356 176.216 21.3676 176.307 21.3823 176.401L23.92 192.649L26.9023 207.22C27.4508 209.9 27.442 212.667 26.8762 215.349L15.9975 266.93C15.5069 269.256 15.4345 271.649 15.7836 273.996Z" fill="#28B481"/>
<path d="M15.5546 451.001L21.4788 507.982C21.9286 512.308 21.8108 516.678 21.1282 520.979L18.0972 540.083C17.9953 540.725 17.4403 541.199 16.7904 541.199C15.9935 541.199 15.3831 540.497 15.4937 539.707L18.2003 520.396C18.7493 516.478 18.8317 512.512 18.4458 508.581L12.7831 450.884C12.6216 449.238 12.6652 447.578 12.9131 445.94L20.8858 393.279C21.3717 390.07 21.0696 386.794 20.0056 383.736L15.6476 371.209C15.4086 370.522 15.323 369.79 15.397 369.065L17.4918 348.527C17.4918 347.408 18.5671 346.597 19.6422 346.905L20.0253 347.015C20.9499 347.28 21.5458 348.173 21.4366 349.13L19.0096 370.408C18.9258 371.142 19.006 371.885 19.2442 372.583L23.1139 383.923C24.1599 386.989 24.4425 390.266 23.9374 393.473L15.6913 445.825C15.4214 447.538 15.3755 449.278 15.5546 451.001Z" fill="#28B481"/>
</svg>
