<svg width="68" height="101" viewBox="0 0 68 101" fill="none" xmlns="http://www.w3.org/2000/svg">
<path d="M30.8741 3.70017V51.3363C30.8741 52.8336 32.0878 54.0473 33.5851 54.0473C35.0823 54.0473 36.2961 52.8336 36.2961 51.3363V3.70017C36.2961 2.20291 35.0823 0.989136 33.5851 0.989136C32.0878 0.989136 30.8741 2.20291 30.8741 3.70017Z" fill="#F7AE20"/>
<path d="M0.762801 61.7605C0.907053 40.966 15.0017 41.3607 34.5308 41.4962C54.0599 41.6316 66.8317 41.4233 66.6874 62.2178C66.5432 83.0123 53.6561 99.8413 34.127 99.7059C14.5979 99.5704 0.618548 82.5549 0.762801 61.7605Z" fill="#EA4040"/>
<path d="M7.84211 68.106L1.95962 70.7387C1.86358 70.7817 1.77644 70.8423 1.70267 70.9173C1.47646 71.1473 1.40123 71.4862 1.50887 71.7904L3.41046 77.1637L5.33409 81.0773L7.02688 84.1401L7.68545 85.3537C7.86142 85.678 8.07274 85.9818 8.31556 86.2596L10.1069 88.3089L11.1819 89.6701L12.5293 91.3714C12.8817 91.8165 13.3517 92.154 13.886 92.3458C14.2846 92.4889 14.649 92.7137 14.9557 93.0057L16.9348 94.8901C17.1515 95.0964 17.3864 95.2829 17.6365 95.4473L19.979 96.9869L21.5158 97.8759C21.9593 98.1325 22.4396 98.3193 22.9399 98.43L25.2045 98.9308C25.4993 98.996 25.7875 99.0877 26.0658 99.2049L27.9484 99.9979C28.5628 100.257 29.2227 100.39 29.8893 100.39H33.2651H37.82C38.168 100.39 38.5151 100.354 38.8556 100.282L41.9599 99.6243L45.7223 98.4357C46.0854 98.321 46.4343 98.1651 46.7621 97.9712L50.5826 95.7107L54.194 92.9197C54.5008 92.6826 54.779 92.4106 55.023 92.1091L56.3085 90.5209L59.9643 86.2057C60.1695 85.9635 60.3512 85.7024 60.5068 85.4258L62.4273 82.0131L64.6087 77.0334C64.7443 76.724 64.8481 76.4017 64.9186 76.0713L65.0732 75.3474C65.279 74.3837 65.1565 73.3789 64.725 72.493L62.8858 68.7162C61.7985 66.4835 58.5413 66.7279 57.7994 69.0978C57.153 71.1627 54.4828 71.7023 53.0852 70.0505L52.6918 69.5855C51.5475 68.2329 49.5007 68.1226 48.2176 69.3443L46.0524 71.4059C44.5094 72.875 42.205 73.205 40.3118 72.2281L39.3547 71.7343C38.1983 71.1376 36.8549 71.0152 35.6097 71.3931L29.863 73.1374C28.3633 73.5926 26.7369 73.3183 25.4695 72.3963L22.0926 69.9399C20.7685 68.9767 19.0568 68.7229 17.5101 69.2603L15.2098 70.0596C13.9267 70.5055 12.5018 70.0936 11.6545 69.0318C10.7434 67.8901 9.17537 67.5093 7.84211 68.106Z" fill="#DF8600" stroke="#DF8600" stroke-width="0.85"/>
<path d="M16.7188 79.4249L16.3353 78.658C16.0786 78.1445 15.4432 77.9522 14.9448 78.237L14.3622 78.5699C13.8513 78.8618 13.7017 79.5296 14.0391 80.0116L14.5283 80.7105C14.8221 81.1302 15.3854 81.26 15.8332 81.0112L16.31 80.7463C16.778 80.4863 16.9582 79.9038 16.7188 79.4249Z" fill="#EEB7E2"/>
<path d="M18.587 85.0296L18.2036 84.2626C17.9468 83.7492 17.3114 83.5568 16.813 83.8416L16.2304 84.1745C15.7195 84.4664 15.5699 85.1342 15.9073 85.6162L16.3965 86.3151C16.6903 86.7348 17.2537 86.8646 17.7014 86.6158L18.1782 86.3509C18.6462 86.0909 18.8264 85.5084 18.587 85.0296Z" fill="#EEB7E2"/>
<path d="M30.2633 81.2931L29.8799 80.5262C29.6231 80.0127 28.9877 79.8203 28.4893 80.1052L27.9067 80.4381C27.3958 80.73 27.2462 81.3977 27.5836 81.8798L28.0728 82.5787C28.3666 82.9983 28.93 83.1281 29.3777 82.8794L29.8545 82.6145C30.3225 82.3545 30.5027 81.772 30.2633 81.2931Z" fill="#EEB7E2"/>
<path d="M41.9396 77.5567L41.5562 76.7897C41.2994 76.2763 40.664 76.0839 40.1656 76.3687L39.583 76.7016C39.0721 76.9935 38.9225 77.6613 39.2599 78.1433L39.7491 78.8422C40.0429 79.2619 40.6063 79.3917 41.054 79.1429L41.5308 78.878C41.9988 78.618 42.179 78.0355 41.9396 77.5567Z" fill="#EEB7E2"/>
<path d="M53.6159 73.8202L53.2325 73.0533C52.9757 72.5398 52.3403 72.3474 51.8419 72.6323L51.2593 72.9652C50.7484 73.2571 50.5988 73.9248 50.9362 74.4069L51.4254 75.1058C51.7192 75.5254 52.2826 75.6552 52.7303 75.4065L53.2071 75.1416C53.6751 74.8816 53.8553 74.2991 53.6159 73.8202Z" fill="#EEB7E2"/>
<path d="M55.4841 83.1614L55.1007 82.3945C54.8439 81.881 54.2085 81.6886 53.7101 81.9734L53.1275 82.3064C52.6166 82.5983 52.467 83.266 52.8044 83.7481L53.2936 84.447C53.5874 84.8666 54.1507 84.9964 54.5985 84.7477L55.0753 84.4828C55.5433 84.2228 55.7235 83.6403 55.4841 83.1614Z" fill="#EEB7E2"/>
<path d="M45.676 85.0297L45.2926 84.2628C45.0358 83.7493 44.4005 83.5569 43.902 83.8417L43.3194 84.1746C42.8086 84.4666 42.6589 85.1343 42.9963 85.6163L43.4856 86.3152C43.7793 86.7349 44.3427 86.8647 44.7904 86.6159L45.2673 86.351C45.7353 86.091 45.9155 85.5085 45.676 85.0297Z" fill="#EEB7E2"/>
<path d="M35.868 86.898L35.4845 86.131C35.2278 85.6176 34.5924 85.4252 34.0939 85.71L33.5114 86.0429C33.0005 86.3349 32.8508 87.0026 33.1883 87.4846L33.6775 88.1835C33.9712 88.6032 34.5346 88.733 34.9824 88.4842L35.4592 88.2193C35.9272 87.9593 36.1074 87.3768 35.868 86.898Z" fill="#EEB7E2"/>
<path d="M26.0599 88.7662L25.6764 87.9993C25.4197 87.4859 24.7843 87.2935 24.2859 87.5783L23.7033 87.9112C23.1924 88.2031 23.0428 88.8709 23.3802 89.3529L23.8694 90.0518C24.1632 90.4715 24.7265 90.6013 25.1743 90.3525L25.6511 90.0876C26.1191 89.8276 26.2993 89.2451 26.0599 88.7662Z" fill="#EEB7E2"/>
<path d="M30.2633 94.5006L29.8799 93.7337C29.6231 93.2202 28.9877 93.0279 28.4893 93.3127L27.9067 93.6456C27.3958 93.9375 27.2462 94.6053 27.5836 95.0873L28.0728 95.7862C28.3666 96.2058 28.93 96.3357 29.3777 96.0869L29.8545 95.822C30.3225 95.562 30.5027 94.9795 30.2633 94.5006Z" fill="#EEB7E2"/>
<path d="M37.7362 94.5006L37.3527 93.7337C37.096 93.2202 36.4606 93.0279 35.9621 93.3127L35.3795 93.6456C34.8687 93.9375 34.719 94.6053 35.0565 95.0873L35.5457 95.7862C35.8394 96.2058 36.4028 96.3357 36.8506 96.0869L37.3274 95.822C37.7954 95.562 37.9756 94.9795 37.7362 94.5006Z" fill="#EEB7E2"/>
<path d="M45.209 94.5006L44.8255 93.7337C44.5688 93.2202 43.9334 93.0279 43.435 93.3127L42.8524 93.6456C42.3415 93.9375 42.1919 94.6053 42.5293 95.0873L43.0185 95.7862C43.3123 96.2058 43.8756 96.3357 44.3234 96.0869L44.8002 95.822C45.2682 95.562 45.4484 94.9795 45.209 94.5006Z" fill="#EEB7E2"/>
<path d="M51.0923 89.8833L50.7089 89.1164C50.4521 88.6029 49.8167 88.4105 49.3183 88.6954L48.7357 89.0283C48.2248 89.3202 48.0752 89.9879 48.4126 90.47L48.9019 91.1689C49.1956 91.5885 49.759 91.7183 50.2067 91.4696L50.6835 91.2047C51.1516 90.9447 51.3318 90.3622 51.0923 89.8833Z" fill="#EEB7E2"/>
</svg>
