<svg width="67" height="80" viewBox="0 0 67 80" fill="none" xmlns="http://www.w3.org/2000/svg">
<path d="M35.9968 7.11859L33.8164 13.1491C33.6711 13.551 34.1255 13.9656 34.5322 13.8024L42.6419 10.5472C44.7317 9.70836 46.2584 8.00672 46.8312 5.8778L47.0825 4.94366L47.5913 1.17068C47.6448 0.774137 47.1942 0.448206 46.829 0.619305L44.4175 1.74925C43.8287 2.02515 43.1856 2.19755 42.5159 2.25902C39.4742 2.53826 36.9809 4.39687 35.9968 7.11859Z" fill="#1C9A38"/>
<path d="M34.6902 12.3784V22.978H31.7183V12.3784H34.6902Z" fill="#67572F" stroke="#919191" stroke-width="0.1"/>
<path fill-rule="evenodd" clip-rule="evenodd" d="M33.5685 79.2251C52.6749 79.2292 66.3817 79.2321 66.3817 58.727C66.3817 38.7127 53.3234 22.2898 34.9314 21.0848L34.8066 21.6654C34.7771 21.8025 34.7768 21.9444 34.8057 22.0816L34.9466 22.7511C33.8597 22.4885 32.7264 22.4837 31.6372 22.7369L31.576 22.7511L31.6744 22.0056C31.686 21.9179 31.6858 21.829 31.674 21.7413L31.5788 21.0345C12.7143 21.6996 0.45546 38.3524 0.45546 58.727C0.45546 79.2318 12.8716 79.2292 31.9416 79.2251C32.2115 79.225 32.4826 79.225 32.7551 79.225C33.0273 79.225 33.2984 79.225 33.5685 79.2251Z" fill="#EA4040"/>
</svg>
