<svg width="88" height="77" viewBox="0 0 88 77" fill="none" xmlns="http://www.w3.org/2000/svg">
<rect x="4.49641" y="68.1497" width="2.36846" height="3.42114" rx="1.18423" fill="black"/>
<rect x="83.0261" y="2.44818" width="2.36846" height="4.02129" rx="1.18423" transform="rotate(-62.8604 83.0261 2.44818)" fill="black"/>
<path d="M85.3063 20.8159L82.8949 25.9737C82.2659 27.3189 81.5184 28.6054 80.6612 29.8179L65.912 50.6793L53.7755 62.5269L39.8737 69.7748C37.8787 70.815 35.7694 71.6194 33.5884 72.1719L22.087 75.0856C17.6536 76.2088 12.961 75.6447 8.91993 73.503L6.6778 72.3147C4.42834 71.1224 4.687 67.8202 7.09465 66.9928L39.8884 48.7508C44.2789 46.3085 48.0921 42.9497 51.069 38.9025L70.4337 12.5747L76.4249 10.3944C76.7195 10.2872 77.0474 10.3243 77.3106 10.4948L82.0219 13.5472L83.4956 14.502C85.5908 15.8595 86.3636 18.5544 85.3063 20.8159Z" fill="#DADE2A"/>
<path d="M76.9178 10.3659L78.8514 10.1819C79.0597 10.1621 79.2567 10.0773 79.4143 9.93968L80.216 9.2397L81.1508 7.35256L82.6185 4.20761L83.3523 1.90131L87.1262 3.26414L85.0296 7.35256L83.8764 10.1514L83.4367 12.0249C83.3822 12.257 83.4124 12.5009 83.5219 12.7126L84.3911 14.3942L85.4298 16.4039L76.9178 10.3659Z" fill="#E0E263"/>
</svg>
