<svg width="61" height="39" viewBox="0 0 61 39" fill="none" xmlns="http://www.w3.org/2000/svg">
<path d="M10.5787 12.1598L16.4337 11.4427L16.7812 12.159L10.9611 12.9477L10.0032 15.4479L9.65566 14.7316L8.40047 15.3407L9.06087 16.7017L7.91126 16.463L7.80569 17.3107L6.40504 17.1939L4.9606 18.6913L1.94042 20.7762L10.5787 12.1598Z" fill="#DEB03B"/>
<path d="M12.3498 6.70083L18.3042 8.57326L18.3774 9.53639L12.4303 7.76028L10.576 10.1292L10.5028 9.16604L9.05811 9.27581L9.19716 11.1058L8.16816 10.3121L7.75246 11.2155L6.43452 10.4439L4.4778 11.4644L0.772803 12.424L12.3498 6.70083Z" fill="#DEB03B"/>
<path d="M49.3566 8.71058L43.8432 10.916V11.8349L49.3566 9.72138L51.2863 11.8349V10.916H52.6647V12.6619L53.5836 11.8349L54.043 12.6619L55.2376 11.8349L57.1673 12.6619L60.7511 13.3051L49.3566 8.71058Z" fill="#DEB03B"/>
<path d="M46.9052 3.4386L41.8662 5.45419V6.29402L46.9052 4.36241L48.6688 6.29402V5.45419H49.9285V7.04986L50.7684 6.29402L51.1883 7.04986L52.2801 6.29402L54.0437 7.04986L57.319 7.63774L46.9052 3.4386Z" fill="#DEB03B"/>
<path d="M8.76996 21.8721L14.7009 19.6315L9.95614 23.1901L12.4603 32.416L18.5231 35.711L14.0419 34.9202L17.6005 38.7424L11.0105 34.9202L8.76996 21.8721Z" fill="#DEB03B"/>
<path d="M50.3834 21.8721L44.4524 19.6315L49.1972 23.1901L46.693 32.416L40.6302 35.711L45.1114 34.9202L41.5528 38.7424L48.1428 34.9202L50.3834 21.8721Z" fill="#DEB03B"/>
<path d="M47.1048 19.7263C47.1048 30.4186 39.8564 30.2659 29.8146 30.2659C19.7729 30.2659 13.2068 30.4186 13.2068 19.7263C13.2068 9.03391 19.7729 0.334984 29.8146 0.334984C39.8564 0.334984 47.1048 9.03391 47.1048 19.7263Z" fill="#EA4040"/>
</svg>
