<svg width="1440" height="21" viewBox="0 0 1440 21" fill="none" xmlns="http://www.w3.org/2000/svg">
<g filter="url(#filter0_i_1_188)">
<rect x="-2.46548" y="21" width="20.6356" height="1442.47" transform="rotate(-90 -2.46548 21)" fill="#9F6E54"/>
</g>
<g filter="url(#filter1_i_1_188)">
<path d="M87.7482 2.82047L0.469238 5.0752H87.7482L158.983 8.45731L233.427 5.0752L287.334 7.0481H402.209L860.423 5.35705L1043.32 7.0481L1439.29 5.0752L402.209 2.82047L290.543 5.0752L233.427 2.82047L158.983 5.0752L87.7482 2.82047Z" fill="#9F6E54"/>
</g>
<g filter="url(#filter2_i_1_188)">
<path d="M158.983 13.2917L87.7482 11.0369L44.333 9.08338C43.8592 9.06206 43.3844 9.07448 42.9124 9.12054L1.73128 13.1386C0.841262 13.2254 0.162506 13.9737 0.162506 14.8679C0.162506 15.8538 0.981897 16.6422 1.96705 16.6041L87.7482 13.2917L158.983 16.6738L233.427 13.2917L287.334 15.2646H402.209L860.423 13.5735L1043.32 15.2646L1439.29 13.2917L402.209 11.0369L290.543 13.2917L233.427 11.0369L158.983 13.2917Z" fill="#9F6E54"/>
</g>
<defs>
<filter id="filter0_i_1_188" x="-2.46548" y="0.364441" width="1442.47" height="22.6356" filterUnits="userSpaceOnUse" color-interpolation-filters="sRGB">
<feFlood flood-opacity="0" result="BackgroundImageFix"/>
<feBlend mode="normal" in="SourceGraphic" in2="BackgroundImageFix" result="shape"/>
<feColorMatrix in="SourceAlpha" type="matrix" values="0 0 0 0 0 0 0 0 0 0 0 0 0 0 0 0 0 0 127 0" result="hardAlpha"/>
<feOffset dy="2"/>
<feGaussianBlur stdDeviation="2"/>
<feComposite in2="hardAlpha" operator="arithmetic" k2="-1" k3="1"/>
<feColorMatrix type="matrix" values="0 0 0 0 0 0 0 0 0 0 0 0 0 0 0 0 0 0 0.25 0"/>
<feBlend mode="normal" in2="shape" result="effect1_innerShadow_1_188"/>
</filter>
<filter id="filter1_i_1_188" x="0.469238" y="2.82047" width="1438.82" height="6.63684" filterUnits="userSpaceOnUse" color-interpolation-filters="sRGB">
<feFlood flood-opacity="0" result="BackgroundImageFix"/>
<feBlend mode="normal" in="SourceGraphic" in2="BackgroundImageFix" result="shape"/>
<feColorMatrix in="SourceAlpha" type="matrix" values="0 0 0 0 0 0 0 0 0 0 0 0 0 0 0 0 0 0 127 0" result="hardAlpha"/>
<feOffset dy="1"/>
<feGaussianBlur stdDeviation="1"/>
<feComposite in2="hardAlpha" operator="arithmetic" k2="-1" k3="1"/>
<feColorMatrix type="matrix" values="0 0 0 0 0 0 0 0 0 0 0 0 0 0 0 0 0 0 0.25 0"/>
<feBlend mode="normal" in2="shape" result="effect1_innerShadow_1_188"/>
</filter>
<filter id="filter2_i_1_188" x="0.162506" y="9.07327" width="1439.12" height="8.60052" filterUnits="userSpaceOnUse" color-interpolation-filters="sRGB">
<feFlood flood-opacity="0" result="BackgroundImageFix"/>
<feBlend mode="normal" in="SourceGraphic" in2="BackgroundImageFix" result="shape"/>
<feColorMatrix in="SourceAlpha" type="matrix" values="0 0 0 0 0 0 0 0 0 0 0 0 0 0 0 0 0 0 127 0" result="hardAlpha"/>
<feOffset dy="1"/>
<feGaussianBlur stdDeviation="1"/>
<feComposite in2="hardAlpha" operator="arithmetic" k2="-1" k3="1"/>
<feColorMatrix type="matrix" values="0 0 0 0 0 0 0 0 0 0 0 0 0 0 0 0 0 0 0.25 0"/>
<feBlend mode="normal" in2="shape" result="effect1_innerShadow_1_188"/>
</filter>
</defs>
</svg>
